<svg version="1.1" viewBox="0.0 0.0 960.0 540.0" fill="none" stroke="none" stroke-linecap="square" stroke-miterlimit="10" xmlns:xlink="http://www.w3.org/1999/xlink" xmlns="http://www.w3.org/2000/svg"><clipPath id="g19bf7b03310_2_8.0"><path d="m0 0l960.0 0l0 540.0l-960.0 0l0 -540.0z" clip-rule="nonzero"/></clipPath><g clip-path="url(#g19bf7b03310_2_8.0)"><path fill="#ffffff" d="m0 0l960.0 0l0 540.0l-960.0 0z" fill-rule="evenodd"/><path fill="#ffffff" d="m110.24147 103.70079l128.0 0l0 60.72441l-128.0 0z" fill-rule="evenodd"/><path stroke="#595959" stroke-width="1.0" stroke-linejoin="round" stroke-linecap="butt" d="m110.24147 103.70079l128.0 0l0 60.72441l-128.0 0z" fill-rule="evenodd"/><path fill="#000000" d="m145.25514 142.24861q-4.15625 -2.609375 -5.265625 -7.359375q-0.375 5.125 -4.59375 7.578125l-0.828125 -1.5625q4.234375 -2.296875 4.234375 -8.6875l-3.859375 0l0 -1.40625l3.9375 0l0 -5.0468674l1.40625 0q0.59375 0.078125 0.078125 0.453125l0 4.5937424l5.265625 0l0 1.40625l-4.890625 0q0.734375 5.578125 5.34375 8.171875l-0.828125 1.859375zm-16.09375 -5.9375q2.375 -1.125 3.625 -2.015625l0 -8.453117l1.421875 0q0.59375 0.078125 0.0625 0.4375l0 16.187492l-1.484375 0l0 -6.453125l-2.671875 1.78125q-0.0625 0.515625 -0.359375 0.21875l-0.59375 -1.703125zm1.625 -3.125q-0.4375 -1.78125 -1.40625 -3.5625l1.484375 -0.59375q0.96875 1.5625 1.484375 3.640625l-1.5625 0.515625zm11.65625 -6.4531174q1.484375 0.8125 2.078125 1.9999924l-1.1875 1.1875q-0.75 -1.1875 -2.0 -2.0781174l1.109375 -1.109375zm11.125 0.515625l0.890625 -0.671875q1.640625 1.125 2.671875 2.3124924l-1.03125 0.890625l-0.671875 -0.671875l-6.375 0.515625q-0.078125 0.515625 -0.375 0.21875l-0.375 -1.484375l1.640625 0l1.484375 -2.8124924l1.40625 0.375q0.296875 0.296875 -0.21875 0.359375l-1.34375 2.0156174l3.265625 -0.15625l-0.96875 -0.8906174zm2.234375 3.1249924l0 6.0q0 1.125 -0.8125 1.125l-1.5625 0l-0.296875 -1.1875l1.109375 0q0.296875 0 0.296875 -0.296875l0 -0.96875l-3.640625 0l0 2.453125l-1.25 0l0 -7.125l6.15625 0zm6.53125 7.5625q1.328125 0.96875 2.59375 2.828125l-1.40625 0.96875q-0.96875 -1.71875 -2.375 -2.984375l1.1875 -0.8125zm-3.421875 -4.375q2.234375 -0.59375 4.234375 -1.34375l0.8125 1.125q0.078125 0.515625 -0.4375 0.21875q-2.234375 0.671875 -4.609375 1.109375l0 0.96875q0 0.515625 0.53125 0.515625l3.1875 0q0.671875 0 0.734375 -1.40625l1.34375 0.4375q-0.21875 2.15625 -1.484375 2.15625l-4.234375 0q-1.328125 0 -1.328125 -1.328125l0 -4.15625l1.1875 0q0.59375 0.0625 0.0625 0.4375l0 1.265625zm-1.25 -7.8749924l1.1875 0q0.59375 0.078125 0.0625 0.453125l0 1.484375q1.9375 -0.453125 3.71875 -1.109375l0.8125 1.109375q0.078125 0.5156174 -0.4375 0.21875q-1.9375 0.5937424 -4.09375 0.9687424l0 0.8125q0 0.515625 0.53125 0.515625l2.96875 0q0.4375 0 0.515625 -0.359375l0.140625 -0.96875l1.34375 0.4375l-0.296875 0.96875q-0.375 1.109375 -1.1875 1.109375l-3.9375 0q-1.328125 0 -1.328125 -1.328125l0 -4.3124924zm-3.125 5.5781174l-3.640625 0l0 1.03125l3.640625 0l0 -1.03125zm0 1.921875l-3.640625 0l0 0.96875l3.640625 0l0 -0.96875zm2.0 4.234375q1.046875 0.96875 1.5625 1.859375l-1.1875 0.890625q-0.59375 -1.125 -1.484375 -1.9375l1.109375 -0.8125zm-2.4375 0.59375q0.59375 0.078125 0.0625 0.4375l0 1.9375q0 0.59375 0.53125 0.59375l4.21875 0q1.046875 0 1.125 -1.484375l1.484375 0.4375q-0.53125 2.453125 -2.015625 2.453125l-5.484375 0q-1.34375 0 -1.34375 -1.25l0 -3.125l1.421875 0zm-5.578125 3.125q1.046875 -1.203125 1.78125 -2.828125l1.265625 0.671875q0.59375 0.359375 -0.140625 0.515625q-0.671875 1.40625 -1.71875 2.59375l-1.1875 -0.953125zm23.453125 -8.765625q0.890625 -0.296875 1.71875 -0.296875q0.953125 0 1.546875 0.59375q0.453125 0.4375 0.53125 1.625q2.21875 -0.8125 5.046875 -1.703125l0.515625 1.78125q-2.890625 0.453125 -5.421875 1.40625l0 3.265625l-1.484375 0l0 -2.671875q-2.21875 1.046875 -2.890625 1.71875q-0.8125 0.8125 -0.8125 1.625q0 0.453125 0.4375 0.890625q0.515625 0.53125 2.0 0.53125l6.234375 0l0 1.40625l-6.296875 0q-2.375 0 -3.34375 -0.96875q-0.75 -0.75 -0.75 -1.859375q0 -1.1875 0.96875 -2.15625q1.484375 -1.484375 4.375 -2.671875q-0.0625 -0.890625 -0.359375 -1.1875q-0.296875 -0.296875 -1.265625 -0.296875q-1.484375 0 -4.53125 2.671875l-1.265625 -1.25q3.5 -2.15625 4.75 -4.75q-2.078125 0.140625 -4.15625 0.296875l-0.296875 -1.484375q2.671875 -0.078125 5.046875 -0.234375q0.375 -0.8906174 0.890625 -2.9687424l1.421875 0.375q0.734375 0.296875 0 0.59375q-0.296875 0.96875 -0.671875 1.9374924q2.671875 -0.234375 5.125 -0.5937424l0.21875 1.5468674q-2.890625 0.234375 -5.796875 0.453125q-0.734375 1.484375 -1.484375 2.375zm21.238281 5.125q-1.5625 2.140625 -4.6875 4.15625l-0.8125 -1.78125q3.1875 -1.421875 5.421875 -4.453125l-5.34375 0l0 -1.421875l5.421875 0l0 -2.21875l-2.234375 0l0 0.671875l-1.484375 0l0 -6.1718674l8.765625 0l0 6.0937424l-1.484375 0l0 -0.59375l-2.078125 0l0 2.21875l5.40625 0l0 1.421875l-5.265625 0q2.078125 2.890625 5.71875 4.375l-0.515625 1.703125q-3.125 -1.1875 -5.34375 -4.078125l0 5.203125l-1.484375 0l0 -5.125zm-4.828125 -11.062492q-0.21875 1.6249924 -1.1875 3.8593674l0.21875 0.140625q0.296875 0.296875 -0.21875 0.375l0 11.8125l-1.484375 0l0 -9.4375q-0.59375 0.96875 -1.40625 1.78125l-0.96875 -1.484375q2.671875 -2.59375 3.640625 -8.015617l1.625 0.59375q0.296875 0.296875 -0.21875 0.375zm2.59375 1.265625l0 2.6718674l5.796875 0l0 -2.6718674l-5.796875 0zm14.40625 8.015617q-1.640625 1.625 -2.3125 2.0l-0.8125 -1.5625q1.78125 -1.109375 3.125 -2.890625l0 -1.34375l0.890625 0.234375q0.953125 -1.484375 1.484375 -3.046875l-5.046875 0l0 -1.4062424l5.40625 0q0.234375 -0.671875 0.53125 -2.078125l1.625 0.4375q0.296875 0.296875 -0.21875 0.375l-0.296875 1.265625l8.984375 0l0 1.4062424l-9.4375 0q-0.8125 2.515625 -2.4375 4.828125l0 8.609375l-1.484375 0l0 -6.828125zm4.078125 -4.828125l6.75 0l0.21875 -0.21875l1.1875 0.953125q0.453125 0.453125 -0.296875 0.59375l-2.8125 2.234375l0 1.109375l4.671875 0l0 1.40625l-4.671875 0l0 4.234375q0 1.1875 -1.1875 1.1875l-1.484375 0l-0.21875 -1.40625l1.109375 0q0.296875 0 0.296875 -0.296875l0 -3.71875l-5.125 0l0 -1.40625l5.125 0l0 -2.15625l0.734375 0.078125l1.265625 -1.1875l-5.5625 0l0 -1.40625z" fill-rule="nonzero"/><path fill="#000000" fill-opacity="0.0" d="m174.24234 60.929916l0 42.771652" fill-rule="evenodd"/><path stroke="#595959" stroke-width="1.0" stroke-linejoin="round" stroke-linecap="butt" d="m174.24234 60.929916l0 42.771652" fill-rule="evenodd"/><path fill="#000000" fill-opacity="0.0" d="m175.64043 61.307087l90.61418 0l0 42.01575l-90.61418 0z" fill-rule="evenodd"/><path fill="#000000" d="m200.67168 74.94583q2.671875 2.671875 2.671875 6.453125q0 3.78125 -2.671875 6.453125q-2.671875 2.671875 -6.453125 2.671875q-3.78125 0 -6.453125 -2.671875q-2.671875 -2.671875 -2.671875 -6.453125q0 -3.78125 2.671875 -6.453125q2.671875 -2.671875 6.453125 -2.671875q3.78125 0 6.453125 2.671875zm-0.515625 12.390625q2.453125 -2.453125 2.453125 -5.9375q0 -3.484375 -2.453125 -5.9375q-2.453125 -2.453125 -5.9375 -2.453125q-3.484375 0 -5.9375 2.453125q-2.453125 2.453125 -2.453125 5.9375q0 3.484375 2.453125 5.9375q2.453125 2.453125 5.9375 2.453125q3.484375 0 5.9375 -2.453125zm-4.828125 -12.390625l0 12.6875l-1.703125 0l0 -9.953125l-2.890625 0l0 -1.1875q2.734375 0.15625 3.484375 -1.546875l1.109375 0zm14.9921875 7.78125q2.375 -3.265625 3.125 -9.71875l1.625 0.296875q0.296875 0.296875 -0.21875 0.375l-0.21875 1.265625l3.484375 0l0 1.40625q-0.21875 4.671875 -1.859375 8.15625q1.5625 2.828125 4.828125 2.828125l6.234375 0l-0.296875 1.640625l-5.9375 0q-3.5625 0 -5.5 -3.046875q-1.84375 2.671875 -3.484375 3.859375l-0.96875 -1.40625q2.015625 -1.34375 3.5625 -4.015625q-0.890625 -1.9375 -1.40625 -4.078125q-0.890625 2.140625 -1.859375 3.625l-1.109375 -1.1875zm3.78125 -5.046875q0.375 3.125 1.265625 5.203125q1.109375 -2.671875 1.265625 -6.53125l-2.296875 0l-0.234375 1.328125zm11.359375 6.390625q0.375 0 0.453125 -2.078125l1.40625 0.375q0 3.109375 -1.40625 3.109375l-1.265625 0q-1.265625 0 -1.265625 -1.328125l0 -8.3125l-2.453125 0l0 5.859375q0 2.453125 -1.78125 4.671875l-1.1875 -1.265625q1.484375 -1.25 1.484375 -4.078125l0 -6.609375l5.421875 0l0 9.359375q0 0.296875 0.21875 0.296875l0.375 0zm10.3125 1.265625q-2.890625 1.03125 -5.40625 1.703125q-0.234375 0.59375 -0.453125 0.21875l-0.515625 -1.703125l2.59375 -0.515625l0 -4.09375l-2.0 0l0 -1.40625l2.0 0l0 -3.9375l-2.21875 0l0 -1.40625l5.9375 0l0 1.40625l-2.234375 0l0 3.9375l2.0 0l0 1.40625l-2.0 0l0 3.71875q0.59375 -0.078125 2.15625 -0.59375l0.140625 1.265625zm5.875 -3.5l0 2.15625l4.15625 0l0 1.40625l-4.15625 0l0 2.3125l4.890625 0l0 1.40625l-11.796875 0l0 -1.40625l5.640625 0l0 -2.3125l-4.015625 0l0 -1.40625l4.015625 0l0 -2.15625l-2.671875 0l0 0.96875l-1.265625 0l0 -9.125l9.203125 0l0 8.828125l-1.265625 0l0 -0.671875l-2.734375 0zm2.734375 -3.40625l-2.734375 0l0 2.21875l2.734375 0l0 -2.21875zm0 -3.5625l-2.734375 0l0 2.375l2.734375 0l0 -2.375zm-4.0 2.375l0 -2.375l-2.671875 0l0 2.375l2.671875 0zm0 1.1875l-2.671875 0l0 2.21875l2.671875 0l0 -2.21875z" fill-rule="nonzero"/><path fill="#000000" fill-opacity="0.0" d="m110.24147 18.913385l128.0 0l0 42.015747l-128.0 0z" fill-rule="evenodd"/><path fill="#000000" d="m148.636 33.06776q0.59375 0 0.96875 -0.375q0.375 -0.375 0.375 -0.9687519q0 -0.59375 -0.375 -0.953125q-0.375 -0.375 -0.96875 -0.375q-0.59375 0 -0.96875 0.375q-0.359375 0.359375 -0.359375 0.953125q0 0.5937519 0.359375 0.9687519q0.375 0.375 0.96875 0.375zm0 0.734375q-0.890625 0 -1.484375 -0.59375q-0.59375 -0.59375 -0.59375 -1.4843769q0 -0.890625 0.59375 -1.484375q0.59375 -0.59375 1.484375 -0.59375q0.890625 0 1.484375 0.59375q0.59375 0.59375 0.59375 1.484375q0 0.8906269 -0.59375 1.4843769q-0.59375 0.59375 -1.484375 0.59375zm-13.28125 0.96875l0 -1.625l10.984375 0l1.921875 1.40625q-0.359375 8.984375 -10.15625 11.734375l-1.34375 -1.640625q9.28125 -2.15625 9.71875 -9.875l-11.125 0zm29.757812 9.796875l-1.703125 0l0 -0.8125l-8.234375 0l0 1.1875l-1.71875 0l0 -11.578125l11.65625 0l0 11.203125zm-9.9375 -9.578125l0 7.125l8.234375 0l0 -7.125l-8.234375 0zm28.339844 1.71875q-2.21875 3.265625 -3.78125 5.34375l-1.40625 -0.96875q1.625 -2.0 3.046875 -4.15625l-6.171875 1.109375l0 5.5q0 1.03125 1.046875 1.03125l6.828125 0l-0.21875 1.640625l-7.0625 0q-2.296875 0 -2.296875 -2.375l0 -5.5l-4.453125 0.890625l-0.59375 -1.703125l5.046875 -0.890625l0 -4.906252l1.5625 0q0.671875 0.15625 0.140625 0.5937519l0 4.09375l6.6875 -1.125l0.59375 -0.359375l1.328125 1.328125q0.296875 0.375 -0.296875 0.453125zm11.3671875 2.375q3.1875 2.4375 6.296875 5.640625l-1.484375 1.265625q-3.109375 -3.28125 -6.0 -5.5q-2.90625 3.109375 -6.609375 5.5625l-1.40625 -1.265625q7.859375 -5.109375 10.09375 -10.234375l-8.09375 0.515625l-0.21875 -1.78125l8.609375 -0.375l0.890625 -0.21875l1.1875 1.1875q0.515625 0.515625 -0.296875 0.671875q-1.421875 2.453125 -2.96875 4.53125zm7.4101562 6.53125l5.046875 -12.84375l1.484375 0l5.046875 12.84375l-1.78125 0l-1.546875 -3.859375l-4.90625 0l-1.5625 3.859375l-1.78125 0zm5.796875 -10.390625l-1.9375 5.109375l3.859375 0l-1.921875 -5.109375z" fill-rule="nonzero"/><path fill="#ffffff" d="m373.82153 173.88715l128.0 0l0 60.724396l-128.0 0z" fill-rule="evenodd"/><path stroke="#595959" stroke-width="1.0" stroke-linejoin="round" stroke-linecap="butt" d="m373.82153 173.88715l128.0 0l0 60.724396l-128.0 0z" fill-rule="evenodd"/><path fill="#000000" d="m429.66528 207.68497q-1.5625 2.140625 -4.6875 4.15625l-0.8125 -1.78125q3.1875 -1.421875 5.421875 -4.453125l-5.34375 0l0 -1.421875l5.421875 0l0 -2.21875l-2.234375 0l0 0.671875l-1.484375 0l0 -6.171875l8.765625 0l0 6.09375l-1.484375 0l0 -0.59375l-2.078125 0l0 2.21875l5.40625 0l0 1.421875l-5.265625 0q2.078125 2.890625 5.71875 4.375l-0.515625 1.703125q-3.125 -1.1875 -5.34375 -4.078125l0 5.203125l-1.484375 0l0 -5.125zm-4.828125 -11.0625q-0.21875 1.625 -1.1875 3.859375l0.21875 0.140625q0.296875 0.296875 -0.21875 0.375l0 11.8125l-1.484375 0l0 -9.4375q-0.59375 0.96875 -1.40625 1.78125l-0.96875 -1.484375q2.671875 -2.59375 3.640625 -8.015625l1.625 0.59375q0.296875 0.296875 -0.21875 0.375zm2.59375 1.265625l0 2.671875l5.796875 0l0 -2.671875l-5.796875 0zm14.40625 8.015625q-1.640625 1.625 -2.3125 2.0l-0.8125 -1.5625q1.78125 -1.109375 3.125 -2.890625l0 -1.34375l0.890625 0.234375q0.953125 -1.484375 1.484375 -3.046875l-5.046875 0l0 -1.40625l5.40625 0q0.234375 -0.671875 0.53125 -2.078125l1.625 0.4375q0.296875 0.296875 -0.21875 0.375l-0.296875 1.265625l8.984375 0l0 1.40625l-9.4375 0q-0.8125 2.515625 -2.4375 4.828125l0 8.609375l-1.484375 0l0 -6.828125zm4.078125 -4.828125l6.75 0l0.21875 -0.21875l1.1875 0.953125q0.453125 0.453125 -0.296875 0.59375l-2.8125 2.234375l0 1.109375l4.671875 0l0 1.40625l-4.671875 0l0 4.234375q0 1.1875 -1.1875 1.1875l-1.484375 0l-0.21875 -1.40625l1.109375 0q0.296875 0 0.296875 -0.296875l0 -3.71875l-5.125 0l0 -1.40625l5.125 0l0 -2.15625l0.734375 0.078125l1.265625 -1.1875l-5.5625 0l0 -1.40625z" fill-rule="nonzero"/><path fill="#000000" fill-opacity="0.0" d="m437.8224 131.11627l0 42.771652" fill-rule="evenodd"/><path stroke="#595959" stroke-width="1.0" stroke-linejoin="round" stroke-linecap="butt" d="m437.8224 131.11627l0 42.771652" fill-rule="evenodd"/><path fill="#000000" fill-opacity="0.0" d="m439.22046 131.49344l90.6142 0l0 42.015747l-90.6142 0z" fill-rule="evenodd"/><path fill="#000000" d="m449.11108 152.91344q2.375 -3.265625 3.125 -9.71875l1.625 0.296875q0.296875 0.296875 -0.21875 0.375l-0.21875 1.265625l3.484375 0l0 1.40625q-0.21875 4.671875 -1.859375 8.15625q1.5625 2.828125 4.828125 2.828125l6.234375 0l-0.296875 1.640625l-5.9375 0q-3.5625 0 -5.5 -3.046875q-1.84375 2.671875 -3.484375 3.859375l-0.96875 -1.40625q2.015625 -1.34375 3.5625 -4.015625q-0.890625 -1.9375 -1.40625 -4.078125q-0.890625 2.140625 -1.859375 3.625l-1.109375 -1.1875zm3.78125 -5.046875q0.375 3.125 1.265625 5.203125q1.109375 -2.671875 1.265625 -6.53125l-2.296875 0l-0.234375 1.328125zm11.359375 6.390625q0.375 0 0.453125 -2.078125l1.40625 0.375q0 3.109375 -1.40625 3.109375l-1.265625 0q-1.265625 0 -1.265625 -1.328125l0 -8.3125l-2.453125 0l0 5.859375q0 2.453125 -1.78125 4.671875l-1.1875 -1.265625q1.484375 -1.25 1.484375 -4.078125l0 -6.609375l5.421875 0l0 9.359375q0 0.296875 0.21875 0.296875l0.375 0zm10.3125 1.265625q-2.890625 1.03125 -5.40625 1.703125q-0.234375 0.59375 -0.453125 0.21875l-0.515625 -1.703125l2.59375 -0.515625l0 -4.09375l-2.0 0l0 -1.40625l2.0 0l0 -3.9375l-2.21875 0l0 -1.40625l5.9375 0l0 1.40625l-2.234375 0l0 3.9375l2.0 0l0 1.40625l-2.0 0l0 3.71875q0.59375 -0.078125 2.15625 -0.59375l0.140625 1.265625zm5.875 -3.5l0 2.15625l4.15625 0l0 1.40625l-4.15625 0l0 2.3125l4.890625 0l0 1.40625l-11.796875 0l0 -1.40625l5.640625 0l0 -2.3125l-4.015625 0l0 -1.40625l4.015625 0l0 -2.15625l-2.671875 0l0 0.96875l-1.265625 0l0 -9.125l9.203125 0l0 8.828125l-1.265625 0l0 -0.671875l-2.734375 0zm2.734375 -3.40625l-2.734375 0l0 2.21875l2.734375 0l0 -2.21875zm0 -3.5625l-2.734375 0l0 2.375l2.734375 0l0 -2.375zm-4.0 2.375l0 -2.375l-2.671875 0l0 2.375l2.671875 0zm0 1.1875l-2.671875 0l0 2.21875l2.671875 0l0 -2.21875z" fill-rule="nonzero"/><path fill="#666666" d="m242.90814 129.14961l178.96063 0l0 -4.913391l9.826752 9.826767l-9.826752 9.826782l0 -4.913391l-178.96063 0z" fill-rule="evenodd"/><path stroke="#434343" stroke-width="1.0" stroke-linejoin="round" stroke-linecap="butt" d="m242.90814 129.14961l178.96063 0l0 -4.913391l9.826752 9.826767l-9.826752 9.826782l0 -4.913391l-178.96063 0z" fill-rule="evenodd"/><path fill="#000000" fill-opacity="0.0" d="m258.2546 66.86352l177.92123 0l0 64.62992l-177.92123 0z" fill-rule="evenodd"/><path fill="#000000" d="m300.20157 84.064766q0 1.484375 -1.046875 2.671875q-0.890625 0.8125 -2.296875 1.84375q-2.515625 1.859375 -2.890625 2.96875l6.609375 0l0 1.640625l-8.546875 0l0 -1.484375q0.75 -1.78125 2.671875 -3.34375q2.078125 -1.625 2.90625 -2.453125q0.8125 -0.734375 0.8125 -1.84375q0 -0.96875 -0.671875 -1.640625q-0.4375 -0.4375 -1.484375 -0.4375q-1.03125 0 -1.484375 0.4375q-0.671875 0.671875 -0.515625 1.859375l-1.859375 0q-0.078125 -1.78125 0.96875 -2.828125q1.109375 -1.109375 2.890625 -1.109375q1.78125 0 2.828125 1.046875q1.109375 1.109375 1.109375 2.671875zm2.59375 -3.5625q2.671875 2.671875 2.671875 6.453125q0 3.78125 -2.671875 6.453125q-2.671875 2.671875 -6.453125 2.671875q-3.78125 0 -6.453125 -2.671875q-2.671875 -2.671875 -2.671875 -6.453125q0 -3.78125 2.671875 -6.453125q2.671875 -2.671875 6.453125 -2.671875q3.78125 0 6.453125 2.671875zm-0.515625 12.390625q2.453125 -2.453125 2.453125 -5.9375q0 -3.484375 -2.453125 -5.9375q-2.453125 -2.453125 -5.9375 -2.453125q-3.484375 0 -5.9375 2.453125q-2.453125 2.453125 -2.453125 5.9375q0 3.484375 2.453125 5.9375q2.453125 2.453125 5.9375 2.453125q3.484375 0 5.9375 -2.453125zm20.710938 -8.6875l-10.328125 0l0 -1.625l12.03125 0l0 10.609375l-1.703125 0l0 -0.8125l-10.328125 0l0 -1.640625l10.328125 0l0 -6.53125zm19.140625 0.96875q-3.9375 8.15625 -13.203125 8.609375q-0.375 0.96875 -0.75 0.15625l-0.59375 -1.9375q9.65625 -0.21875 12.984375 -7.9375l1.5625 1.109375zm-10.46875 0q-2.0 -1.859375 -3.78125 -3.046875l1.265625 -1.5625q1.5625 0.96875 3.9375 3.203125l-1.421875 1.40625zm19.371094 1.1875l-7.421875 0l0 -1.640625l15.21875 0l0 1.640625l-6.078125 0l0 0.96875q0 4.671875 -3.34375 7.71875l-1.484375 -1.109375q3.109375 -2.453125 3.109375 -6.609375l0 -0.96875zm-4.75 -4.53125l0 -1.625l9.875 0l0 1.625l-9.875 0zm30.957031 6.15625l-6.90625 0.75l1.40625 6.015625l-1.625 0.375l-1.40625 -6.171875l-7.578125 0.890625l-0.21875 -1.5625l7.421875 -0.8125l-0.75 -3.484375l-5.046875 0.59375l-0.296875 -1.5625l4.90625 -0.515625l-0.75 -3.421875l1.5625 -0.296875q0.671875 -0.0625 0.21875 0.53125l0.59375 2.96875l5.421875 -0.75l0.296875 1.5625l-5.265625 0.671875l0.734375 3.484375l6.984375 -0.8125l0.296875 1.546875zm10.9140625 -0.953125q3.1875 2.4375 6.296875 5.640625l-1.484375 1.265625q-3.109375 -3.28125 -6.0 -5.5q-2.90625 3.109375 -6.609375 5.5625l-1.40625 -1.265625q7.859375 -5.109375 10.09375 -10.234375l-8.09375 0.515625l-0.21875 -1.78125l8.609375 -0.375l0.890625 -0.21875l1.1875 1.1875q0.515625 0.515625 -0.296875 0.671875q-1.421875 2.453125 -2.96875 4.53125zm11.269531 -2.15625q3.640625 1.03125 7.359375 2.8125l-0.890625 1.71875q-3.9375 -2.015625 -6.46875 -2.671875l0 7.71875l-1.703125 0l0 -14.84375l1.484375 0q0.890625 0.0625 0.21875 0.59375l0 4.671875z" fill-rule="nonzero"/><path fill="#000000" d="m325.14297 109.43351q3.1875 2.4375 6.296875 5.640625l-1.484375 1.265625q-3.109375 -3.28125 -6.0 -5.5q-2.90625 3.109375 -6.609375 5.5625l-1.40625 -1.265625q7.859375 -5.109375 10.09375 -10.234375l-8.09375 0.515625l-0.21875 -1.78125l8.609375 -0.375l0.890625 -0.21875l1.1875 1.1875q0.515625 0.515625 -0.296875 0.671875q-1.421875 2.453125 -2.96875 4.53125zm8.300781 1.328125q7.796875 -3.265625 11.8125 -9.203125l1.40625 1.1875q0.59375 0.453125 -0.515625 0.671875q-1.421875 1.859375 -3.640625 3.78125l0 10.09375l-1.703125 0l0 -8.6875q-2.609375 2.015625 -6.09375 3.640625l-1.265625 -1.484375zm27.316406 -3.640625q-0.515625 4.828125 -2.671875 6.984375q-2.15625 2.15625 -5.640625 3.421875l-0.96875 -1.421875q3.421875 -1.109375 5.34375 -3.046875q2.078125 -2.078125 2.375 -7.046875l1.5625 0.515625q0.671875 0.234375 0 0.59375zm-6.3125 2.671875q-0.890625 -2.0 -1.78125 -3.328125l1.421875 -0.75q1.109375 1.40625 1.921875 3.34375l-1.5625 0.734375zm-3.78125 1.125q-0.890625 -2.078125 -1.859375 -3.5l1.484375 -0.734375q1.046875 1.40625 1.859375 3.40625l-1.484375 0.828125zm21.375 -3.046875l6.09375 0l0 1.625l-6.09375 0q0 5.203125 -4.671875 7.796875l-1.1875 -1.1875q4.234375 -2.375 4.15625 -6.609375l-7.421875 0l0 -1.625l7.421875 0l0 -2.828125q-2.078125 0.234375 -5.421875 0.375l-0.671875 -1.5625q7.203125 -0.140625 11.0625 -1.328125l0.8125 1.5625q0.234375 0.515625 -0.65625 0.140625q-1.5625 0.375 -3.421875 0.59375l0 3.046875z" fill-rule="nonzero"/><path fill="#666666" d="m506.48557 199.33595l178.9606 0l0 -4.913376l9.826782 9.826767l-9.826782 9.826767l0 -4.913376l-178.9606 0z" fill-rule="evenodd"/><path stroke="#434343" stroke-width="1.0" stroke-linejoin="round" stroke-linecap="butt" d="m506.48557 199.33595l178.9606 0l0 -4.913376l9.826782 9.826767l-9.826782 9.826767l0 -4.913376l-178.9606 0z" fill-rule="evenodd"/><path fill="#ffffff" d="m641.07874 237.19423l128.0 0l0 60.72441l-128.0 0z" fill-rule="evenodd"/><path stroke="#595959" stroke-width="1.0" stroke-linejoin="round" stroke-linecap="butt" d="m641.07874 237.19423l128.0 0l0 60.72441l-128.0 0z" fill-rule="evenodd"/><path fill="#000000" d="m696.9225 270.99207q-1.5625 2.140625 -4.6875 4.15625l-0.8125 -1.78125q3.1875 -1.421875 5.421875 -4.453125l-5.34375 0l0 -1.421875l5.421875 0l0 -2.21875l-2.234375 0l0 0.671875l-1.484375 0l0 -6.171875l8.765625 0l0 6.09375l-1.484375 0l0 -0.59375l-2.078125 0l0 2.21875l5.40625 0l0 1.421875l-5.265625 0q2.078125 2.890625 5.71875 4.375l-0.515625 1.703125q-3.125 -1.1875 -5.34375 -4.078125l0 5.203125l-1.484375 0l0 -5.125zm-4.828125 -11.0625q-0.21875 1.625 -1.1875 3.859375l0.21875 0.140625q0.296875 0.296875 -0.21875 0.375l0 11.8125l-1.484375 0l0 -9.4375q-0.59375 0.96875 -1.40625 1.78125l-0.96875 -1.484375q2.671875 -2.59375 3.640625 -8.015625l1.625 0.59375q0.296875 0.296875 -0.21875 0.375zm2.59375 1.265625l0 2.671875l5.796875 0l0 -2.671875l-5.796875 0zm14.40625 8.015625q-1.640625 1.625 -2.3125 2.0l-0.8125 -1.5625q1.78125 -1.109375 3.125 -2.890625l0 -1.34375l0.890625 0.234375q0.953125 -1.484375 1.484375 -3.046875l-5.046875 0l0 -1.40625l5.40625 0q0.234375 -0.671875 0.53125 -2.078125l1.625 0.4375q0.296875 0.296875 -0.21875 0.375l-0.296875 1.265625l8.984375 0l0 1.40625l-9.4375 0q-0.8125 2.515625 -2.4375 4.828125l0 8.609375l-1.484375 0l0 -6.828125zm4.078125 -4.828125l6.75 0l0.21875 -0.21875l1.1875 0.953125q0.453125 0.453125 -0.296875 0.59375l-2.8125 2.234375l0 1.109375l4.671875 0l0 1.40625l-4.671875 0l0 4.234375q0 1.1875 -1.1875 1.1875l-1.484375 0l-0.21875 -1.40625l1.109375 0q0.296875 0 0.296875 -0.296875l0 -3.71875l-5.125 0l0 -1.40625l5.125 0l0 -2.15625l0.734375 0.078125l1.265625 -1.1875l-5.5625 0l0 -1.40625z" fill-rule="nonzero"/><path fill="#000000" fill-opacity="0.0" d="m705.0796 194.42336l0 42.771652" fill-rule="evenodd"/><path stroke="#595959" stroke-width="1.0" stroke-linejoin="round" stroke-linecap="butt" d="m705.0796 194.42336l0 42.771652" fill-rule="evenodd"/><path fill="#000000" fill-opacity="0.0" d="m706.47766 194.80052l90.6142 0l0 42.015747l-90.6142 0z" fill-rule="evenodd"/><path fill="#000000" d="m716.3683 216.22052q2.375 -3.265625 3.125 -9.71875l1.625 0.296875q0.296875 0.296875 -0.21875 0.375l-0.21875 1.265625l3.484375 0l0 1.40625q-0.21875 4.671875 -1.859375 8.15625q1.5625 2.828125 4.828125 2.828125l6.234375 0l-0.296875 1.640625l-5.9375 0q-3.5625 0 -5.5 -3.046875q-1.84375 2.671875 -3.484375 3.859375l-0.96875 -1.40625q2.015625 -1.34375 3.5625 -4.015625q-0.890625 -1.9375 -1.40625 -4.078125q-0.890625 2.140625 -1.859375 3.625l-1.109375 -1.1875zm3.78125 -5.046875q0.375 3.125 1.265625 5.203125q1.109375 -2.671875 1.265625 -6.53125l-2.296875 0l-0.234375 1.328125zm11.359375 6.390625q0.375 0 0.453125 -2.078125l1.40625 0.375q0 3.109375 -1.40625 3.109375l-1.265625 0q-1.265625 0 -1.265625 -1.328125l0 -8.3125l-2.453125 0l0 5.859375q0 2.453125 -1.78125 4.671875l-1.1875 -1.265625q1.484375 -1.25 1.484375 -4.078125l0 -6.609375l5.421875 0l0 9.359375q0 0.296875 0.21875 0.296875l0.375 0zm10.3125 1.265625q-2.890625 1.03125 -5.40625 1.703125q-0.234375 0.59375 -0.453125 0.21875l-0.515625 -1.703125l2.59375 -0.515625l0 -4.09375l-2.0 0l0 -1.40625l2.0 0l0 -3.9375l-2.21875 0l0 -1.40625l5.9375 0l0 1.40625l-2.234375 0l0 3.9375l2.0 0l0 1.40625l-2.0 0l0 3.71875q0.59375 -0.078125 2.15625 -0.59375l0.140625 1.265625zm5.875 -3.5l0 2.15625l4.15625 0l0 1.40625l-4.15625 0l0 2.3125l4.890625 0l0 1.40625l-11.796875 0l0 -1.40625l5.640625 0l0 -2.3125l-4.015625 0l0 -1.40625l4.015625 0l0 -2.15625l-2.671875 0l0 0.96875l-1.265625 0l0 -9.125l9.203125 0l0 8.828125l-1.265625 0l0 -0.671875l-2.734375 0zm2.734375 -3.40625l-2.734375 0l0 2.21875l2.734375 0l0 -2.21875zm0 -3.5625l-2.734375 0l0 2.375l2.734375 0l0 -2.375zm-4.0 2.375l0 -2.375l-2.671875 0l0 2.375l2.671875 0zm0 1.1875l-2.671875 0l0 2.21875l2.671875 0l0 -2.21875z" fill-rule="nonzero"/><path fill="#000000" fill-opacity="0.0" d="m374.24146 18.913385l128.0 0l0 42.015747l-128.0 0z" fill-rule="evenodd"/><path fill="#000000" d="m412.59888 33.06776q0.59375 0 0.96875 -0.375q0.375 -0.375 0.375 -0.9687519q0 -0.59375 -0.375 -0.953125q-0.375 -0.375 -0.96875 -0.375q-0.59375 0 -0.96875 0.375q-0.359375 0.359375 -0.359375 0.953125q0 0.5937519 0.359375 0.9687519q0.375 0.375 0.96875 0.375zm0 0.734375q-0.890625 0 -1.484375 -0.59375q-0.59375 -0.59375 -0.59375 -1.4843769q0 -0.890625 0.59375 -1.484375q0.59375 -0.59375 1.484375 -0.59375q0.890625 0 1.484375 0.59375q0.59375 0.59375 0.59375 1.484375q0 0.8906269 -0.59375 1.4843769q-0.59375 0.59375 -1.484375 0.59375zm-13.28125 0.96875l0 -1.625l10.984375 0l1.921875 1.40625q-0.359375 8.984375 -10.15625 11.734375l-1.34375 -1.640625q9.28125 -2.15625 9.71875 -9.875l-11.125 0zm29.757812 9.796875l-1.703125 0l0 -0.8125l-8.234375 0l0 1.1875l-1.71875 0l0 -11.578125l11.65625 0l0 11.203125zm-9.9375 -9.578125l0 7.125l8.234375 0l0 -7.125l-8.234375 0zm28.339844 1.71875q-2.21875 3.265625 -3.78125 5.34375l-1.40625 -0.96875q1.625 -2.0 3.046875 -4.15625l-6.171875 1.109375l0 5.5q0 1.03125 1.046875 1.03125l6.828125 0l-0.21875 1.640625l-7.0625 0q-2.296875 0 -2.296875 -2.375l0 -5.5l-4.453125 0.890625l-0.59375 -1.703125l5.046875 -0.890625l0 -4.906252l1.5625 0q0.671875 0.15625 0.140625 0.5937519l0 4.09375l6.6875 -1.125l0.59375 -0.359375l1.328125 1.328125q0.296875 0.375 -0.296875 0.453125zm11.3671875 2.375q3.1875 2.4375 6.296875 5.640625l-1.484375 1.265625q-3.109375 -3.28125 -6.0 -5.5q-2.90625 3.109375 -6.609375 5.5625l-1.40625 -1.265625q7.859375 -5.109375 10.09375 -10.234375l-8.09375 0.515625l-0.21875 -1.78125l8.609375 -0.375l0.890625 -0.21875l1.1875 1.1875q0.515625 0.515625 -0.296875 0.671875q-1.421875 2.453125 -2.96875 4.53125zm8.457031 -6.171875l5.9375 0q1.484375 0 2.453125 0.96875q0.890625 0.890625 0.890625 2.375q0 1.1875 -0.828125 2.0q-0.4375 0.453125 -1.109375 0.671875q0.890625 0.296875 1.40625 0.8125q0.890625 0.890625 0.890625 2.234375q0 1.625 -1.109375 2.75q-0.890625 0.890625 -2.671875 0.890625l-5.859375 0l0 -12.703125zm1.703125 1.421875l0 3.921875l4.015625 0q0.734375 0 1.25 -0.515625q0.59375 -0.59375 0.59375 -1.5625q0 -0.8125 -0.59375 -1.40625q-0.4375 -0.4375 -1.109375 -0.4375l-4.15625 0zm0 5.34375l0 4.515625l3.78125 0q1.125 0 1.71875 -0.59375q0.65625 -0.65625 0.65625 -1.625q0 -1.046875 -0.59375 -1.640625q-0.65625 -0.65625 -1.78125 -0.65625l-3.78125 0z" fill-rule="nonzero"/><path fill="#000000" fill-opacity="0.0" d="m642.50446 18.913385l128.0 0l0 42.015747l-128.0 0z" fill-rule="evenodd"/><path fill="#000000" d="m680.6021 33.06776q0.59375 0 0.96875 -0.375q0.375 -0.375 0.375 -0.9687519q0 -0.59375 -0.375 -0.953125q-0.375 -0.375 -0.96875 -0.375q-0.59375 0 -0.96875 0.375q-0.359375 0.359375 -0.359375 0.953125q0 0.5937519 0.359375 0.9687519q0.375 0.375 0.96875 0.375zm0 0.734375q-0.890625 0 -1.484375 -0.59375q-0.59375 -0.59375 -0.59375 -1.4843769q0 -0.890625 0.59375 -1.484375q0.59375 -0.59375 1.484375 -0.59375q0.890625 0 1.484375 0.59375q0.59375 0.59375 0.59375 1.484375q0 0.8906269 -0.59375 1.4843769q-0.59375 0.59375 -1.484375 0.59375zm-13.28125 0.96875l0 -1.625l10.984375 0l1.921875 1.40625q-0.359375 8.984375 -10.15625 11.734375l-1.34375 -1.640625q9.28125 -2.15625 9.71875 -9.875l-11.125 0zm29.757812 9.796875l-1.703125 0l0 -0.8125l-8.234375 0l0 1.1875l-1.71875 0l0 -11.578125l11.65625 0l0 11.203125zm-9.9375 -9.578125l0 7.125l8.234375 0l0 -7.125l-8.234375 0zm28.339844 1.71875q-2.21875 3.265625 -3.78125 5.34375l-1.40625 -0.96875q1.625 -2.0 3.046875 -4.15625l-6.171875 1.109375l0 5.5q0 1.03125 1.046875 1.03125l6.828125 0l-0.21875 1.640625l-7.0625 0q-2.296875 0 -2.296875 -2.375l0 -5.5l-4.453125 0.890625l-0.59375 -1.703125l5.046875 -0.890625l0 -4.906252l1.5625 0q0.671875 0.15625 0.140625 0.5937519l0 4.09375l6.6875 -1.125l0.59375 -0.359375l1.328125 1.328125q0.296875 0.375 -0.296875 0.453125zm11.3671875 2.375q3.1875 2.4375 6.296875 5.640625l-1.484375 1.265625q-3.109375 -3.28125 -6.0 -5.5q-2.90625 3.109375 -6.609375 5.5625l-1.40625 -1.265625q7.859375 -5.109375 10.09375 -10.234375l-8.09375 0.515625l-0.21875 -1.78125l8.609375 -0.375l0.890625 -0.21875l1.1875 1.1875q0.515625 0.515625 -0.296875 0.671875q-1.421875 2.453125 -2.96875 4.53125zm8.238281 0.21875q0 -3.265625 1.84375 -5.125q1.421875 -1.40625 3.640625 -1.40625q2.234375 0 3.484375 1.265625q1.34375 1.328125 1.421875 3.40625l-1.78125 0q-0.15625 -1.5625 -0.96875 -2.375q-0.890625 -0.890625 -2.15625 -0.890625q-1.328125 0 -2.375 1.046875q-1.328125 1.328125 -1.328125 4.078125q0 2.75 1.328125 4.078125q0.96875 0.96875 2.375 0.96875q1.484375 0 2.296875 -0.8125q1.046875 -1.046875 1.046875 -2.96875l1.78125 0q-0.078125 2.515625 -1.484375 3.921875q-1.265625 1.265625 -3.640625 1.265625q-2.21875 0 -3.640625 -1.40625q-1.84375 -1.859375 -1.84375 -5.046875z" fill-rule="nonzero"/><path fill="#666666" d="m634.64764 272.50684l-383.22833 0l0 4.9212646l-9.842514 -9.842529l9.842514 -9.842529l0 4.9212646l383.22833 0z" fill-rule="evenodd"/><path stroke="#434343" stroke-width="1.0" stroke-linejoin="round" stroke-linecap="butt" d="m634.64764 272.50684l-383.22833 0l0 4.9212646l-9.842514 -9.842529l9.842514 -9.842529l0 4.9212646l383.22833 0z" fill-rule="evenodd"/><path fill="#ffffff" d="m110.24147 327.70078l128.0 0l0 60.724426l-128.0 0z" fill-rule="evenodd"/><path stroke="#595959" stroke-width="1.0" stroke-linejoin="round" stroke-linecap="butt" d="m110.24147 327.70078l128.0 0l0 60.724426l-128.0 0z" fill-rule="evenodd"/><path fill="#000000" d="m145.25514 366.24863q-4.15625 -2.609375 -5.265625 -7.359375q-0.375 5.125 -4.59375 7.578125l-0.828125 -1.5625q4.234375 -2.296875 4.234375 -8.6875l-3.859375 0l0 -1.40625l3.9375 0l0 -5.046875l1.40625 0q0.59375 0.078125 0.078125 0.453125l0 4.59375l5.265625 0l0 1.40625l-4.890625 0q0.734375 5.578125 5.34375 8.171875l-0.828125 1.859375zm-16.09375 -5.9375q2.375 -1.125 3.625 -2.015625l0 -8.453125l1.421875 0q0.59375 0.078125 0.0625 0.4375l0 16.1875l-1.484375 0l0 -6.453125l-2.671875 1.78125q-0.0625 0.515625 -0.359375 0.21875l-0.59375 -1.703125zm1.625 -3.125q-0.4375 -1.78125 -1.40625 -3.5625l1.484375 -0.59375q0.96875 1.5625 1.484375 3.640625l-1.5625 0.515625zm11.65625 -6.453125q1.484375 0.8125 2.078125 2.0l-1.1875 1.1875q-0.75 -1.1875 -2.0 -2.078125l1.109375 -1.109375zm11.125 0.515625l0.890625 -0.671875q1.640625 1.125 2.671875 2.3125l-1.03125 0.890625l-0.671875 -0.671875l-6.375 0.515625q-0.078125 0.515625 -0.375 0.21875l-0.375 -1.484375l1.640625 0l1.484375 -2.8125l1.40625 0.375q0.296875 0.296875 -0.21875 0.359375l-1.34375 2.015625l3.265625 -0.15625l-0.96875 -0.890625zm2.234375 3.125l0 6.0q0 1.125 -0.8125 1.125l-1.5625 0l-0.296875 -1.1875l1.109375 0q0.296875 0 0.296875 -0.296875l0 -0.96875l-3.640625 0l0 2.453125l-1.25 0l0 -7.125l6.15625 0zm6.53125 7.5625q1.328125 0.96875 2.59375 2.828125l-1.40625 0.96875q-0.96875 -1.71875 -2.375 -2.984375l1.1875 -0.8125zm-3.421875 -4.375q2.234375 -0.59375 4.234375 -1.34375l0.8125 1.125q0.078125 0.515625 -0.4375 0.21875q-2.234375 0.671875 -4.609375 1.109375l0 0.96875q0 0.515625 0.53125 0.515625l3.1875 0q0.671875 0 0.734375 -1.40625l1.34375 0.4375q-0.21875 2.15625 -1.484375 2.15625l-4.234375 0q-1.328125 0 -1.328125 -1.328125l0 -4.15625l1.1875 0q0.59375 0.0625 0.0625 0.4375l0 1.265625zm-1.25 -7.875l1.1875 0q0.59375 0.078125 0.0625 0.453125l0 1.484375q1.9375 -0.453125 3.71875 -1.109375l0.8125 1.109375q0.078125 0.515625 -0.4375 0.21875q-1.9375 0.59375 -4.09375 0.96875l0 0.8125q0 0.515625 0.53125 0.515625l2.96875 0q0.4375 0 0.515625 -0.359375l0.140625 -0.96875l1.34375 0.4375l-0.296875 0.96875q-0.375 1.109375 -1.1875 1.109375l-3.9375 0q-1.328125 0 -1.328125 -1.328125l0 -4.3125zm-3.125 5.578125l-3.640625 0l0 1.03125l3.640625 0l0 -1.03125zm0 1.921875l-3.640625 0l0 0.96875l3.640625 0l0 -0.96875zm2.0 4.234375q1.046875 0.96875 1.5625 1.859375l-1.1875 0.890625q-0.59375 -1.125 -1.484375 -1.9375l1.109375 -0.8125zm-2.4375 0.59375q0.59375 0.078125 0.0625 0.4375l0 1.9375q0 0.59375 0.53125 0.59375l4.21875 0q1.046875 0 1.125 -1.484375l1.484375 0.4375q-0.53125 2.453125 -2.015625 2.453125l-5.484375 0q-1.34375 0 -1.34375 -1.25l0 -3.125l1.421875 0zm-5.578125 3.125q1.046875 -1.203125 1.78125 -2.828125l1.265625 0.671875q0.59375 0.359375 -0.140625 0.515625q-0.671875 1.40625 -1.71875 2.59375l-1.1875 -0.953125zm23.453125 -8.765625q0.890625 -0.296875 1.71875 -0.296875q0.953125 0 1.546875 0.59375q0.453125 0.4375 0.53125 1.625q2.21875 -0.8125 5.046875 -1.703125l0.515625 1.78125q-2.890625 0.453125 -5.421875 1.40625l0 3.265625l-1.484375 0l0 -2.671875q-2.21875 1.046875 -2.890625 1.71875q-0.8125 0.8125 -0.8125 1.625q0 0.453125 0.4375 0.890625q0.515625 0.53125 2.0 0.53125l6.234375 0l0 1.40625l-6.296875 0q-2.375 0 -3.34375 -0.96875q-0.75 -0.75 -0.75 -1.859375q0 -1.1875 0.96875 -2.15625q1.484375 -1.484375 4.375 -2.671875q-0.0625 -0.890625 -0.359375 -1.1875q-0.296875 -0.296875 -1.265625 -0.296875q-1.484375 0 -4.53125 2.671875l-1.265625 -1.25q3.5 -2.15625 4.75 -4.75q-2.078125 0.140625 -4.15625 0.296875l-0.296875 -1.484375q2.671875 -0.078125 5.046875 -0.234375q0.375 -0.890625 0.890625 -2.96875l1.421875 0.375q0.734375 0.296875 0 0.59375q-0.296875 0.96875 -0.671875 1.9375q2.671875 -0.234375 5.125 -0.59375l0.21875 1.546875q-2.890625 0.234375 -5.796875 0.453125q-0.734375 1.484375 -1.484375 2.375zm21.238281 5.125q-1.5625 2.140625 -4.6875 4.15625l-0.8125 -1.78125q3.1875 -1.421875 5.421875 -4.453125l-5.34375 0l0 -1.421875l5.421875 0l0 -2.21875l-2.234375 0l0 0.671875l-1.484375 0l0 -6.171875l8.765625 0l0 6.09375l-1.484375 0l0 -0.59375l-2.078125 0l0 2.21875l5.40625 0l0 1.421875l-5.265625 0q2.078125 2.890625 5.71875 4.375l-0.515625 1.703125q-3.125 -1.1875 -5.34375 -4.078125l0 5.203125l-1.484375 0l0 -5.125zm-4.828125 -11.0625q-0.21875 1.625 -1.1875 3.859375l0.21875 0.140625q0.296875 0.296875 -0.21875 0.375l0 11.8125l-1.484375 0l0 -9.4375q-0.59375 0.96875 -1.40625 1.78125l-0.96875 -1.484375q2.671875 -2.59375 3.640625 -8.015625l1.625 0.59375q0.296875 0.296875 -0.21875 0.375zm2.59375 1.265625l0 2.671875l5.796875 0l0 -2.671875l-5.796875 0zm14.40625 8.015625q-1.640625 1.625 -2.3125 2.0l-0.8125 -1.5625q1.78125 -1.109375 3.125 -2.890625l0 -1.34375l0.890625 0.234375q0.953125 -1.484375 1.484375 -3.046875l-5.046875 0l0 -1.40625l5.40625 0q0.234375 -0.671875 0.53125 -2.078125l1.625 0.4375q0.296875 0.296875 -0.21875 0.375l-0.296875 1.265625l8.984375 0l0 1.40625l-9.4375 0q-0.8125 2.515625 -2.4375 4.828125l0 8.609375l-1.484375 0l0 -6.828125zm4.078125 -4.828125l6.75 0l0.21875 -0.21875l1.1875 0.953125q0.453125 0.453125 -0.296875 0.59375l-2.8125 2.234375l0 1.109375l4.671875 0l0 1.40625l-4.671875 0l0 4.234375q0 1.1875 -1.1875 1.1875l-1.484375 0l-0.21875 -1.40625l1.109375 0q0.296875 0 0.296875 -0.296875l0 -3.71875l-5.125 0l0 -1.40625l5.125 0l0 -2.15625l0.734375 0.078125l1.265625 -1.1875l-5.5625 0l0 -1.40625z" fill-rule="nonzero"/><path fill="#000000" fill-opacity="0.0" d="m174.24234 284.9299l0 42.771667" fill-rule="evenodd"/><path stroke="#595959" stroke-width="1.0" stroke-linejoin="round" stroke-linecap="butt" d="m174.24234 284.9299l0 42.771667" fill-rule="evenodd"/><path fill="#000000" fill-opacity="0.0" d="m175.64043 285.3071l90.61418 0l0 42.015747l-90.61418 0z" fill-rule="evenodd"/><path fill="#000000" d="m185.53105 306.72708q2.375 -3.265625 3.125 -9.71875l1.625 0.296875q0.296875 0.296875 -0.21875 0.375l-0.21875 1.265625l3.484375 0l0 1.40625q-0.21875 4.671875 -1.859375 8.15625q1.5625 2.828125 4.828125 2.828125l6.234375 0l-0.296875 1.640625l-5.9375 0q-3.5625 0 -5.5 -3.046875q-1.84375 2.671875 -3.484375 3.859375l-0.96875 -1.40625q2.015625 -1.34375 3.5625 -4.015625q-0.890625 -1.9375 -1.40625 -4.078125q-0.890625 2.140625 -1.859375 3.625l-1.109375 -1.1875zm3.78125 -5.046875q0.375 3.125 1.265625 5.203125q1.109375 -2.671875 1.265625 -6.53125l-2.296875 0l-0.234375 1.328125zm11.359375 6.390625q0.375 0 0.453125 -2.078125l1.40625 0.375q0 3.109375 -1.40625 3.109375l-1.265625 0q-1.265625 0 -1.265625 -1.328125l0 -8.3125l-2.453125 0l0 5.859375q0 2.453125 -1.78125 4.671875l-1.1875 -1.265625q1.484375 -1.25 1.484375 -4.078125l0 -6.609375l5.421875 0l0 9.359375q0 0.296875 0.21875 0.296875l0.375 0zm10.3125 1.265625q-2.890625 1.03125 -5.40625 1.703125q-0.234375 0.59375 -0.453125 0.21875l-0.515625 -1.703125l2.59375 -0.515625l0 -4.09375l-2.0 0l0 -1.40625l2.0 0l0 -3.9375l-2.21875 0l0 -1.40625l5.9375 0l0 1.40625l-2.234375 0l0 3.9375l2.0 0l0 1.40625l-2.0 0l0 3.71875q0.59375 -0.078125 2.15625 -0.59375l0.140625 1.265625zm5.875 -3.5l0 2.15625l4.15625 0l0 1.40625l-4.15625 0l0 2.3125l4.890625 0l0 1.40625l-11.796875 0l0 -1.40625l5.640625 0l0 -2.3125l-4.015625 0l0 -1.40625l4.015625 0l0 -2.15625l-2.671875 0l0 0.96875l-1.265625 0l0 -9.125l9.203125 0l0 8.828125l-1.265625 0l0 -0.671875l-2.734375 0zm2.734375 -3.40625l-2.734375 0l0 2.21875l2.734375 0l0 -2.21875zm0 -3.5625l-2.734375 0l0 2.375l2.734375 0l0 -2.375zm-4.0 2.375l0 -2.375l-2.671875 0l0 2.375l2.671875 0zm0 1.1875l-2.671875 0l0 2.21875l2.671875 0l0 -2.21875z" fill-rule="nonzero"/><path fill="#ffffff" d="m110.24147 223.70079l128.0 0l0 60.72441l-128.0 0z" fill-rule="evenodd"/><path stroke="#595959" stroke-width="1.0" stroke-linejoin="round" stroke-linecap="butt" d="m110.24147 223.70079l128.0 0l0 60.72441l-128.0 0z" fill-rule="evenodd"/><path fill="#000000" d="m153.64577 236.70174q2.671875 2.671875 2.671875 6.453125q0 3.78125 -2.671875 6.453125q-2.671875 2.671875 -6.453125 2.671875q-3.78125 0 -6.453125 -2.671875q-2.671875 -2.671875 -2.671875 -6.453125q0 -3.78125 2.671875 -6.453125q2.671875 -2.671875 6.453125 -2.671875q3.78125 0 6.453125 2.671875zm-0.515625 12.390625q2.453125 -2.453125 2.453125 -5.9375q0 -3.484375 -2.453125 -5.9375q-2.453125 -2.453125 -5.9375 -2.453125q-3.484375 0 -5.9375 2.453125q-2.453125 2.453125 -2.453125 5.9375q0 3.484375 2.453125 5.9375q2.453125 2.453125 5.9375 2.453125q3.484375 0 5.9375 -2.453125zm-7.203125 -7.203125q2.0 0.078125 2.59375 -0.515625q0.53125 -0.515625 0.53125 -1.40625q0 -0.890625 -0.59375 -1.484375q-0.453125 -0.453125 -1.421875 -0.453125q-1.03125 0 -1.625 0.59375q-0.515625 0.515625 -0.671875 1.109375l-1.921875 0q0.296875 -1.1875 1.109375 -2.0q1.1875 -1.1875 3.1875 -1.1875q1.78125 0 2.828125 1.046875q0.890625 0.890625 0.890625 2.140625q0 1.34375 -0.671875 2.015625q-0.8125 0.8125 -1.78125 0.953125q1.328125 0.296875 1.921875 0.890625q0.890625 0.890625 0.890625 2.15625q0 1.640625 -1.03125 2.671875q-1.1875 1.1875 -3.265625 1.1875q-2.0 0 -3.046875 -1.03125q-0.890625 -0.890625 -1.03125 -2.375l1.84375 0q0.078125 0.8125 0.53125 1.25q0.59375 0.59375 1.703125 0.59375q1.1875 0 1.859375 -0.65625q0.59375 -0.59375 0.59375 -1.5625q0 -1.046875 -0.59375 -1.640625q-0.75 -0.734375 -2.828125 -0.734375l0 -1.5625zm27.828125 9.359375q-4.15625 -2.609375 -5.265625 -7.359375q-0.375 5.125 -4.59375 7.578125l-0.828125 -1.5625q4.234375 -2.296875 4.234375 -8.6875l-3.859375 0l0 -1.40625l3.9375 0l0 -5.046875l1.40625 0q0.59375 0.078125 0.078125 0.453125l0 4.59375l5.265625 0l0 1.40625l-4.890625 0q0.734375 5.578125 5.34375 8.171875l-0.828125 1.859375zm-16.09375 -5.9375q2.375 -1.125 3.625 -2.015625l0 -8.453125l1.421875 0q0.59375 0.078125 0.0625 0.4375l0 16.1875l-1.484375 0l0 -6.453125l-2.671875 1.78125q-0.0625 0.515625 -0.359375 0.21875l-0.59375 -1.703125zm1.625 -3.125q-0.4375 -1.78125 -1.40625 -3.5625l1.484375 -0.59375q0.96875 1.5625 1.484375 3.640625l-1.5625 0.515625zm11.65625 -6.453125q1.484375 0.8125 2.078125 2.0l-1.1875 1.1875q-0.75 -1.1875 -2.0 -2.078125l1.109375 -1.109375zm11.125 0.515625l0.890625 -0.671875q1.640625 1.125 2.671875 2.3125l-1.03125 0.890625l-0.671875 -0.671875l-6.375 0.515625q-0.078125 0.515625 -0.375 0.21875l-0.375 -1.484375l1.640625 0l1.484375 -2.8125l1.40625 0.375q0.296875 0.296875 -0.21875 0.359375l-1.34375 2.015625l3.265625 -0.15625l-0.96875 -0.890625zm2.234375 3.125l0 6.0q0 1.125 -0.8125 1.125l-1.5625 0l-0.296875 -1.1875l1.109375 0q0.296875 0 0.296875 -0.296875l0 -0.96875l-3.640625 0l0 2.453125l-1.25 0l0 -7.125l6.15625 0zm6.53125 7.5625q1.328125 0.96875 2.59375 2.828125l-1.40625 0.96875q-0.96875 -1.71875 -2.375 -2.984375l1.1875 -0.8125zm-3.421875 -4.375q2.234375 -0.59375 4.234375 -1.34375l0.8125 1.125q0.078125 0.515625 -0.4375 0.21875q-2.234375 0.671875 -4.609375 1.109375l0 0.96875q0 0.515625 0.53125 0.515625l3.1875 0q0.671875 0 0.734375 -1.40625l1.34375 0.4375q-0.21875 2.15625 -1.484375 2.15625l-4.234375 0q-1.328125 0 -1.328125 -1.328125l0 -4.15625l1.1875 0q0.59375 0.0625 0.0625 0.4375l0 1.265625zm-1.25 -7.875l1.1875 0q0.59375 0.078125 0.0625 0.453125l0 1.484375q1.9375 -0.453125 3.71875 -1.109375l0.8125 1.109375q0.078125 0.515625 -0.4375 0.21875q-1.9375 0.59375 -4.09375 0.96875l0 0.8125q0 0.515625 0.53125 0.515625l2.96875 0q0.4375 0 0.515625 -0.359375l0.140625 -0.96875l1.34375 0.4375l-0.296875 0.96875q-0.375 1.109375 -1.1875 1.109375l-3.9375 0q-1.328125 0 -1.328125 -1.328125l0 -4.3125zm-3.125 5.578125l-3.640625 0l0 1.03125l3.640625 0l0 -1.03125zm0 1.921875l-3.640625 0l0 0.96875l3.640625 0l0 -0.96875zm2.0 4.234375q1.046875 0.96875 1.5625 1.859375l-1.1875 0.890625q-0.59375 -1.125 -1.484375 -1.9375l1.109375 -0.8125zm-2.4375 0.59375q0.59375 0.078125 0.0625 0.4375l0 1.9375q0 0.59375 0.53125 0.59375l4.21875 0q1.046875 0 1.125 -1.484375l1.484375 0.4375q-0.53125 2.453125 -2.015625 2.453125l-5.484375 0q-1.34375 0 -1.34375 -1.25l0 -3.125l1.421875 0zm-5.578125 3.125q1.046875 -1.203125 1.78125 -2.828125l1.265625 0.671875q0.59375 0.359375 -0.140625 0.515625q-0.671875 1.40625 -1.71875 2.59375l-1.1875 -0.953125zm23.453125 -8.765625q0.890625 -0.296875 1.71875 -0.296875q0.953125 0 1.546875 0.59375q0.453125 0.4375 0.53125 1.625q2.21875 -0.8125 5.046875 -1.703125l0.515625 1.78125q-2.890625 0.453125 -5.421875 1.40625l0 3.265625l-1.484375 0l0 -2.671875q-2.21875 1.046875 -2.890625 1.71875q-0.8125 0.8125 -0.8125 1.625q0 0.453125 0.4375 0.890625q0.515625 0.53125 2.0 0.53125l6.234375 0l0 1.40625l-6.296875 0q-2.375 0 -3.34375 -0.96875q-0.75 -0.75 -0.75 -1.859375q0 -1.1875 0.96875 -2.15625q1.484375 -1.484375 4.375 -2.671875q-0.0625 -0.890625 -0.359375 -1.1875q-0.296875 -0.296875 -1.265625 -0.296875q-1.484375 0 -4.53125 2.671875l-1.265625 -1.25q3.5 -2.15625 4.75 -4.75q-2.078125 0.140625 -4.15625 0.296875l-0.296875 -1.484375q2.671875 -0.078125 5.046875 -0.234375q0.375 -0.890625 0.890625 -2.96875l1.421875 0.375q0.734375 0.296875 0 0.59375q-0.296875 0.96875 -0.671875 1.9375q2.671875 -0.234375 5.125 -0.59375l0.21875 1.546875q-2.890625 0.234375 -5.796875 0.453125q-0.734375 1.484375 -1.484375 2.375z" fill-rule="nonzero"/><path fill="#000000" d="m168.60085 270.93613q1.40625 0.59375 4.828125 0.96875l-0.59375 1.640625q-3.484375 -0.453125 -5.421875 -1.5625q-2.21875 1.34375 -5.859375 1.703125l-0.515625 -1.484375q3.109375 -0.296875 5.1875 -1.265625q-0.96875 -0.890625 -1.484375 -1.84375q-1.265625 1.40625 -2.671875 2.078125l-0.890625 -1.265625q2.75 -1.484375 3.9375 -3.640625l-1.640625 0l0 -4.59375l-0.890625 1.03125l-1.03125 -0.890625q-0.515625 1.046875 -1.265625 2.078125l0 9.734375l-1.484375 0l0 -7.875q-0.96875 1.109375 -1.859375 1.625l-0.8125 -1.546875q2.828125 -2.15625 4.234375 -5.28125l1.265625 0.828125q1.546875 -1.421875 2.8125 -4.75l1.484375 0.59375q0.296875 0.296875 -0.21875 0.359375l-0.453125 0.96875l7.5 0l0 1.40625l-8.15625 0l-0.53125 0.828125l7.203125 0l0 5.484375l-4.53125 0l-0.515625 0.890625l3.71875 0l0.296875 -0.296875l1.109375 0.96875q0.4375 0.21875 -0.21875 0.375q-1.046875 1.484375 -2.53125 2.734375zm-2.8125 -2.59375q0.515625 0.890625 1.625 1.78125q1.1875 -1.03125 1.78125 -1.78125l-3.40625 0zm-3.859375 -10.46875q0.296875 0.234375 -0.375 0.296875q-1.5625 2.3125 -4.015625 3.640625l-0.890625 -1.40625q2.53125 -1.40625 3.9375 -3.5625l1.34375 1.03125zm2.8125 4.09375l0 0.953125l5.265625 0l0 -0.953125l-5.265625 0zm0 2.140625l0 0.96875l5.265625 0l0 -0.96875l-5.265625 0zm27.46875 4.90625l-0.296875 1.5625q-0.375 2.0 -2.078125 2.0l-3.5 0q-1.40625 0 -1.40625 -1.703125l0 -6.6875l-2.515625 0l0 1.703125q0 5.796875 -6.09375 7.359375l-0.734375 -1.78125q5.109375 -1.265625 5.109375 -5.5l0 -1.78125l-4.890625 0l0 -1.40625l15.953125 0l0 1.40625l-5.125 0l0 6.15625q0 0.59375 0.53125 0.59375l2.0 0q0.890625 0 1.03125 -0.734375l0.296875 -1.703125l1.71875 0.515625zm-2.3125 -9.578125l-12.171875 0l0 -1.40625l12.171875 0l0 1.40625z" fill-rule="nonzero"/><path fill="#666666" d="m242.90814 353.1496l116.787384 0l0 -4.913391l9.826782 9.826782l-9.826782 9.826782l0 -4.913391l-116.787384 0z" fill-rule="evenodd"/><path stroke="#434343" stroke-width="1.0" stroke-linejoin="round" stroke-linecap="butt" d="m242.90814 353.1496l116.787384 0l0 -4.913391l9.826782 9.826782l-9.826782 9.826782l0 -4.913391l-116.787384 0z" fill-rule="evenodd"/><path fill="#000000" fill-opacity="0.0" d="m438.24356 388.9299l0 42.771667" fill-rule="evenodd"/><path stroke="#595959" stroke-width="1.0" stroke-linejoin="round" stroke-linecap="butt" d="m438.24356 388.9299l0 42.771667" fill-rule="evenodd"/><path fill="#000000" fill-opacity="0.0" d="m439.64166 389.3071l90.614136 0l0 42.015747l-90.614136 0z" fill-rule="evenodd"/><path fill="#000000" d="m449.5323 410.72708q2.375 -3.265625 3.125 -9.71875l1.625 0.296875q0.296875 0.296875 -0.21875 0.375l-0.21875 1.265625l3.484375 0l0 1.40625q-0.21875 4.671875 -1.859375 8.15625q1.5625 2.828125 4.828125 2.828125l6.234375 0l-0.296875 1.640625l-5.9375 0q-3.5625 0 -5.5 -3.046875q-1.84375 2.671875 -3.484375 3.859375l-0.96875 -1.40625q2.015625 -1.34375 3.5625 -4.015625q-0.890625 -1.9375 -1.40625 -4.078125q-0.890625 2.140625 -1.859375 3.625l-1.109375 -1.1875zm3.78125 -5.046875q0.375 3.125 1.265625 5.203125q1.109375 -2.671875 1.265625 -6.53125l-2.296875 0l-0.234375 1.328125zm11.359375 6.390625q0.375 0 0.453125 -2.078125l1.40625 0.375q0 3.109375 -1.40625 3.109375l-1.265625 0q-1.265625 0 -1.265625 -1.328125l0 -8.3125l-2.453125 0l0 5.859375q0 2.453125 -1.78125 4.671875l-1.1875 -1.265625q1.484375 -1.25 1.484375 -4.078125l0 -6.609375l5.421875 0l0 9.359375q0 0.296875 0.21875 0.296875l0.375 0zm10.3125 1.265625q-2.890625 1.03125 -5.40625 1.703125q-0.234375 0.59375 -0.453125 0.21875l-0.515625 -1.703125l2.59375 -0.515625l0 -4.09375l-2.0 0l0 -1.40625l2.0 0l0 -3.9375l-2.21875 0l0 -1.40625l5.9375 0l0 1.40625l-2.234375 0l0 3.9375l2.0 0l0 1.40625l-2.0 0l0 3.71875q0.59375 -0.078125 2.15625 -0.59375l0.140625 1.265625zm5.875 -3.5l0 2.15625l4.15625 0l0 1.40625l-4.15625 0l0 2.3125l4.890625 0l0 1.40625l-11.796875 0l0 -1.40625l5.640625 0l0 -2.3125l-4.015625 0l0 -1.40625l4.015625 0l0 -2.15625l-2.671875 0l0 0.96875l-1.265625 0l0 -9.125l9.203125 0l0 8.828125l-1.265625 0l0 -0.671875l-2.734375 0zm2.734375 -3.40625l-2.734375 0l0 2.21875l2.734375 0l0 -2.21875zm0 -3.5625l-2.734375 0l0 2.375l2.734375 0l0 -2.375zm-4.0 2.375l0 -2.375l-2.671875 0l0 2.375l2.671875 0zm0 1.1875l-2.671875 0l0 2.21875l2.671875 0l0 -2.21875z" fill-rule="nonzero"/><path fill="#ffffff" d="m374.2427 327.70078l128.0 0l0 60.724426l-128.0 0z" fill-rule="evenodd"/><path stroke="#595959" stroke-width="1.0" stroke-linejoin="round" stroke-linecap="butt" d="m374.2427 327.70078l128.0 0l0 60.724426l-128.0 0z" fill-rule="evenodd"/><path fill="#000000" d="m432.60208 363.93613q1.40625 0.59375 4.828125 0.96875l-0.59375 1.640625q-3.484375 -0.453125 -5.421875 -1.5625q-2.21875 1.34375 -5.859375 1.703125l-0.515625 -1.484375q3.109375 -0.296875 5.1875 -1.265625q-0.96875 -0.890625 -1.484375 -1.84375q-1.265625 1.40625 -2.671875 2.078125l-0.890625 -1.265625q2.75 -1.484375 3.9375 -3.640625l-1.640625 0l0 -4.59375l-0.890625 1.03125l-1.03125 -0.890625q-0.515625 1.046875 -1.265625 2.078125l0 9.734375l-1.484375 0l0 -7.875q-0.96875 1.109375 -1.859375 1.625l-0.8125 -1.546875q2.828125 -2.15625 4.234375 -5.28125l1.265625 0.828125q1.546875 -1.421875 2.8125 -4.75l1.484375 0.59375q0.296875 0.296875 -0.21875 0.359375l-0.453125 0.96875l7.5 0l0 1.40625l-8.15625 0l-0.53125 0.828125l7.203125 0l0 5.484375l-4.53125 0l-0.515625 0.890625l3.71875 0l0.296875 -0.296875l1.109375 0.96875q0.4375 0.21875 -0.21875 0.375q-1.046875 1.484375 -2.53125 2.734375zm-2.8125 -2.59375q0.515625 0.890625 1.625 1.78125q1.1875 -1.03125 1.78125 -1.78125l-3.40625 0zm-3.859375 -10.46875q0.296875 0.234375 -0.375 0.296875q-1.5625 2.3125 -4.015625 3.640625l-0.890625 -1.40625q2.53125 -1.40625 3.9375 -3.5625l1.34375 1.03125zm2.8125 4.09375l0 0.953125l5.265625 0l0 -0.953125l-5.265625 0zm0 2.140625l0 0.96875l5.265625 0l0 -0.96875l-5.265625 0zm27.46875 4.90625l-0.296875 1.5625q-0.375 2.0 -2.078125 2.0l-3.5 0q-1.40625 0 -1.40625 -1.703125l0 -6.6875l-2.515625 0l0 1.703125q0 5.796875 -6.09375 7.359375l-0.734375 -1.78125q5.109375 -1.265625 5.109375 -5.5l0 -1.78125l-4.890625 0l0 -1.40625l15.953125 0l0 1.40625l-5.125 0l0 6.15625q0 0.59375 0.53125 0.59375l2.0 0q0.890625 0 1.03125 -0.734375l0.296875 -1.703125l1.71875 0.515625zm-2.3125 -9.578125l-12.171875 0l0 -1.40625l12.171875 0l0 1.40625z" fill-rule="nonzero"/><path fill="#000000" fill-opacity="0.0" d="m438.24356 420.9299l0 37.417328" fill-rule="evenodd"/><path stroke="#595959" stroke-width="1.0" stroke-linejoin="round" stroke-linecap="butt" stroke-dasharray="4.0,3.0" d="m438.24356 420.9299l0 37.417328" fill-rule="evenodd"/></g></svg>