<svg version="1.1" viewBox="0.0 0.0 960.0 540.0" fill="none" stroke="none" stroke-linecap="square" stroke-miterlimit="10" xmlns:xlink="http://www.w3.org/1999/xlink" xmlns="http://www.w3.org/2000/svg"><clipPath id="g170b07eaa98_1_78.0"><path d="m0 0l960.0 0l0 540.0l-960.0 0l0 -540.0z" clip-rule="nonzero"/></clipPath><g clip-path="url(#g170b07eaa98_1_78.0)"><path fill="#ffffff" d="m0 0l960.0 0l0 540.0l-960.0 0z" fill-rule="evenodd"/><path fill="#eeeeee" d="m295.87665 199.20473l148.44095 0l0 78.110245l-148.44095 0z" fill-rule="evenodd"/><path stroke="#595959" stroke-width="1.0" stroke-linejoin="round" stroke-linecap="butt" d="m295.87665 199.20473l148.44095 0l0 78.110245l-148.44095 0z" fill-rule="evenodd"/><path fill="#000000" d="m350.87836 246.51859l6.375 -16.21875l1.875 0l6.375 16.21875l-2.25 0l-1.96875 -4.875l-6.1875 0l-1.96875 4.875l-2.25 0zm7.3125 -13.125l-2.4375 6.46875l4.875 0l-2.4375 -6.46875zm10.6875 16.59375l-1.875 0l0 -13.96875l1.875 0l0 1.21875q1.125 -1.40625 2.90625 -1.40625q1.96875 0 3.1875 1.21875q1.5 1.5 1.5 4.21875q0 2.8125 -1.5 4.3125q-1.21875 1.21875 -3.1875 1.21875q-1.96875 0 -2.90625 -1.5l0 4.6875zm2.90625 -12.46875q-1.125 0 -1.96875 0.84375q-0.9375 0.9375 -0.9375 2.25l0 1.3125q0 1.3125 1.03125 2.34375q0.84375 0.84375 1.875 0.84375q0.9375 0 1.59375 -0.65625q1.03125 -1.03125 1.03125 -3.1875q0 -2.0625 -0.9375 -3.0q-0.75 -0.75 -1.6875 -0.75zm9.0 12.46875l-1.875 0l0 -13.96875l1.875 0l0 1.21875q1.125 -1.40625 2.90625 -1.40625q1.96875 0 3.1875 1.21875q1.5 1.5 1.5 4.21875q0 2.8125 -1.5 4.3125q-1.21875 1.21875 -3.1875 1.21875q-1.96875 0 -2.90625 -1.5l0 4.6875zm2.90625 -12.46875q-1.125 0 -1.96875 0.84375q-0.9375 0.9375 -0.9375 2.25l0 1.3125q0 1.3125 1.03125 2.34375q0.84375 0.84375 1.875 0.84375q0.9375 0 1.59375 -0.65625q1.03125 -1.03125 1.03125 -3.1875q0 -2.0625 -0.9375 -3.0q-0.75 -0.75 -1.6875 -0.75z" fill-rule="nonzero"/><path fill="#eeeeee" d="m718.0971 199.20473l148.44098 0l0 78.110245l-148.44098 0z" fill-rule="evenodd"/><path stroke="#595959" stroke-width="1.0" stroke-linejoin="round" stroke-linecap="butt" d="m718.0971 199.20473l148.44098 0l0 78.110245l-148.44098 0z" fill-rule="evenodd"/><path fill="#000000" d="m764.4738 238.45609q0 -3.9375 2.25 -6.1875q1.96875 -1.96875 4.78125 -1.96875q2.8125 0 4.78125 1.96875q2.25 2.25 2.25 6.1875q0 3.9375 -2.25 6.1875q-1.96875 1.96875 -4.78125 1.96875q-2.8125 0 -4.78125 -1.96875q-2.25 -2.25 -2.25 -6.1875zm7.03125 -6.375q-1.78125 0 -3.1875 1.40625q-1.59375 1.59375 -1.59375 4.96875q0 3.375 1.59375 4.96875q1.40625 1.40625 3.1875 1.40625q1.78125 0 3.1875 -1.40625q1.59375 -1.59375 1.59375 -4.96875q0 -3.375 -1.59375 -4.96875q-1.40625 -1.40625 -3.1875 -1.40625zm12.75 5.25q1.5 -1.5 4.03125 -1.5l0 2.0625q-0.375 -0.09375 -1.03125 -0.09375q-1.40625 0 -2.625 1.21875q-1.03125 1.03125 -1.40625 2.15625l0 5.34375l-1.875 0l0 -10.5l1.875 0l0 2.625q0.46875 -0.75 1.03125 -1.3125zm5.71875 -6.75l1.875 0l0 2.4375l-1.875 0l0 -2.4375zm0 5.4375l1.875 0l0 10.5l-1.875 0l0 -10.5zm5.0625 3.46875q0 -1.59375 1.03125 -2.625q1.03125 -1.03125 2.625 -1.03125q1.5 0 2.625 0.9375q0.9375 -0.9375 2.25 -0.9375l0.84375 0l0 1.78125q-1.125 -0.46875 -2.53125 -0.09375q0.65625 0.84375 0.65625 1.96875q0 1.6875 -1.03125 2.71875q-0.9375 0.9375 -2.71875 0.9375q-0.9375 0 -1.96875 -0.46875q-0.46875 0.375 -0.46875 0.75q0 0.28125 0.1875 0.46875q0.46875 0.46875 2.15625 0.5625q1.5 0.09375 3.1875 0.1875q0.9375 0.1875 1.40625 0.65625q0.75 0.75 0.75 1.78125q0 1.125 -0.75 1.875q-1.03125 1.03125 -4.5 1.03125q-2.90625 0 -3.9375 -1.03125q-0.65625 -0.65625 -0.65625 -1.59375q0 -0.65625 0.46875 -1.125q0.375 -0.375 1.125 -0.75q-0.28125 -0.1875 -0.65625 -0.5625q-0.46875 -0.46875 -0.46875 -1.21875q0 -0.9375 1.40625 -1.78125q-1.03125 -1.03125 -1.03125 -2.4375zm3.65625 -2.0625q-0.65625 0 -1.125 0.46875q-0.65625 0.65625 -0.65625 1.59375q0 0.9375 0.5625 1.5q0.5625 0.5625 1.3125 0.5625q0.84375 0 1.3125 -0.46875q0.5625 -0.5625 0.5625 -1.59375q0 -0.9375 -0.65625 -1.59375q-0.46875 -0.46875 -1.3125 -0.46875zm1.96875 8.8125q-2.25 -0.09375 -3.46875 -0.28125q-0.65625 0.1875 -0.9375 0.46875q-0.375 0.375 -0.375 0.84375q0 0.46875 0.375 0.84375q0.5625 0.5625 2.4375 0.5625q2.53125 0 3.1875 -0.65625q0.375 -0.375 0.375 -0.75q0 -0.375 -0.28125 -0.65625q-0.375 -0.375 -1.3125 -0.375zm5.4375 -15.65625l1.875 0l0 2.4375l-1.875 0l0 -2.4375zm0 5.4375l1.875 0l0 10.5l-1.875 0l0 -10.5zm6.75 10.5l-1.875 0l0 -10.5l1.875 0l0 1.875q1.6875 -2.0625 3.5625 -2.0625q1.875 0 3.0 1.125q0.75 0.75 0.75 1.78125l0 7.78125l-1.875 0l0 -7.21875q0 -0.84375 -0.5625 -1.40625q-0.5625 -0.5625 -1.59375 -0.5625q-0.9375 0 -1.875 0.9375q-1.40625 1.40625 -1.40625 3.0l0 5.25z" fill-rule="nonzero"/><path fill="#eeeeee" d="m295.87665 370.4672l148.44095 0l0 78.11023l-148.44095 0z" fill-rule="evenodd"/><path stroke="#595959" stroke-width="1.0" stroke-linejoin="round" stroke-linecap="butt" d="m295.87665 370.4672l148.44095 0l0 78.11023l-148.44095 0z" fill-rule="evenodd"/><path fill="#000000" d="m339.7221 409.81232q0 -4.125 2.34375 -6.46875q1.78125 -1.78125 4.59375 -1.78125q2.8125 0 4.40625 1.59375q1.6875 1.6875 1.78125 4.3125l-2.25 0q-0.1875 -1.96875 -1.21875 -3.0q-1.125 -1.125 -2.71875 -1.125q-1.6875 0 -3.0 1.3125q-1.6875 1.6875 -1.6875 5.15625q0 3.46875 1.6875 5.15625q1.21875 1.21875 3.0 1.21875q1.875 0 2.90625 -1.03125q1.3125 -1.3125 1.3125 -3.75l2.25 0q-0.09375 3.1875 -1.875 4.96875q-1.59375 1.59375 -4.59375 1.59375q-2.8125 0 -4.59375 -1.78125q-2.34375 -2.34375 -2.34375 -6.375zm15.9375 0.5625q0.28125 -1.3125 1.21875 -2.25q1.03125 -1.03125 3.0 -1.03125q2.34375 0 3.375 1.03125q0.9375 0.9375 0.9375 2.15625l0 5.90625q0 1.03125 0.75 1.59375l-2.25 0q-0.375 -0.375 -0.375 -1.21875q-1.40625 1.40625 -3.5625 1.40625q-1.78125 0 -2.71875 -0.9375q-0.84375 -0.84375 -0.84375 -1.96875q0 -1.3125 0.84375 -2.15625q0.9375 -0.9375 2.625 -1.21875q1.125 -0.1875 1.96875 -0.46875q1.21875 -0.28125 1.6875 -0.5625q0 -0.75 -0.5625 -1.3125q-0.5625 -0.5625 -1.59375 -0.5625q-1.3125 0 -1.875 0.5625q-0.375 0.375 -0.5625 1.03125l-2.0625 0zm6.65625 2.0625q-0.5625 0.1875 -1.03125 0.28125q-1.59375 0.375 -2.4375 0.5625q-0.75 0.1875 -1.125 0.5625q-0.46875 0.46875 -0.46875 1.03125q0 0.65625 0.46875 1.125q0.28125 0.28125 1.21875 0.28125q1.59375 0 2.625 -1.03125q0.65625 -0.65625 0.75 -0.9375l0 -1.875zm4.59375 0.1875q0 -2.53125 1.5 -4.03125q1.40625 -1.40625 3.46875 -1.40625q2.25 0 3.375 1.125q1.03125 1.03125 1.21875 2.53125l-2.0625 0q-0.09375 -0.75 -0.75 -1.40625q-0.5625 -0.5625 -1.6875 -0.5625q-1.125 0 -1.875 0.75q-1.125 1.125 -1.125 3.09375q0 1.875 1.03125 2.90625q0.75 0.75 1.875 0.75q1.3125 0 2.0625 -0.75q0.75 -0.75 0.75 -1.96875l2.0625 0q-0.09375 1.96875 -1.3125 3.1875q-1.21875 1.21875 -3.5625 1.21875q-1.96875 0 -3.28125 -1.3125q-1.6875 -1.6875 -1.6875 -4.125zm12.28125 -10.875l1.875 0l0 7.40625q1.59375 -2.0625 3.46875 -2.0625q1.96875 0 2.90625 0.9375q0.9375 0.9375 0.9375 2.25l0 7.5l-1.875 0l0 -7.03125q0 -1.03125 -0.65625 -1.6875q-0.46875 -0.46875 -1.3125 -0.46875q-1.03125 0 -1.875 0.84375q-1.03125 1.03125 -1.59375 2.90625l0 5.4375l-1.875 0l0 -16.03125zm11.71875 10.78125q0 -2.53125 1.59375 -4.125q1.3125 -1.3125 3.375 -1.3125q1.96875 0 3.375 1.40625q1.3125 1.3125 1.3125 4.03125l-7.59375 0q0 1.96875 0.9375 2.90625q0.84375 0.84375 2.15625 0.84375q1.3125 0 1.875 -0.5625q0.65625 -0.65625 0.65625 -1.5l2.0625 0q-0.375 1.6875 -1.21875 2.53125q-1.21875 1.21875 -3.375 1.21875q-2.25 0 -3.65625 -1.40625q-1.5 -1.5 -1.5 -4.03125zm4.875 -3.84375q-1.125 0 -1.875 0.75q-0.65625 0.65625 -0.84375 1.59375l5.34375 0q0 -0.9375 -0.75 -1.6875q-0.65625 -0.65625 -1.875 -0.65625z" fill-rule="nonzero"/><path fill="#434343" d="m135.73228 212.38583l138.66148 0l0 -4.3937073l13.684967 8.787399l-13.684967 8.787399l0 -4.393692l-138.66148 0z" fill-rule="evenodd"/><path stroke="#000000" stroke-width="1.0" stroke-linejoin="round" stroke-linecap="butt" d="m135.73228 212.38583l138.66148 0l0 -4.3937073l13.684967 8.787399l-13.684967 8.787399l0 -4.393692l-138.66148 0z" fill-rule="evenodd"/><path fill="#434343" d="m452.11548 212.38583l246.25201 0l0 -4.3937073l13.684998 8.787399l-13.684998 8.787399l0 -4.393692l-246.25201 0z" fill-rule="evenodd"/><path stroke="#000000" stroke-width="1.0" stroke-linejoin="round" stroke-linecap="butt" d="m452.11548 212.38583l246.25201 0l0 -4.3937073l13.684998 8.787399l-13.684998 8.787399l0 -4.393692l-246.25201 0z" fill-rule="evenodd"/><path fill="#434343" d="m707.972 256.8189l-242.15753 0l0 -4.3937073l-13.684967 8.787384l13.684967 8.787415l0 -4.3937073l242.15753 0z" fill-rule="evenodd"/><path stroke="#000000" stroke-width="1.0" stroke-linejoin="round" stroke-linecap="butt" d="m707.972 256.8189l-242.15753 0l0 -4.3937073l-13.684967 8.787384l13.684967 8.787415l0 -4.3937073l242.15753 0z" fill-rule="evenodd"/><path fill="#434343" d="m288.0656 256.8189l-138.66148 0l0 -4.3937073l-13.684967 8.787384l13.684967 8.787415l0 -4.3937073l138.66148 0z" fill-rule="evenodd"/><path stroke="#000000" stroke-width="1.0" stroke-linejoin="round" stroke-linecap="butt" d="m288.0656 256.8189l-138.66148 0l0 -4.3937073l-13.684967 8.787384l13.684967 8.787415l0 -4.3937073l138.66148 0z" fill-rule="evenodd"/><path fill="#434343" d="m416.4777 278.99344l0 76.11029l4.3937073 0l-8.787415 13.684998l-8.787384 -13.684998l4.3936768 0l0 -76.11029z" fill-rule="evenodd"/><path stroke="#000000" stroke-width="1.0" stroke-linejoin="round" stroke-linecap="butt" d="m416.4777 278.99344l0 76.11029l4.3937073 0l-8.787415 13.684998l-8.787384 -13.684998l4.3936768 0l0 -76.11029z" fill-rule="evenodd"/><path fill="#434343" d="m346.54593 368.7874l0 -76.11032l4.3937073 0l-8.787415 -13.684967l-8.787384 13.684967l4.3937073 0l0 76.11032z" fill-rule="evenodd"/><path stroke="#000000" stroke-width="1.0" stroke-linejoin="round" stroke-linecap="butt" d="m346.54593 368.7874l0 -76.11032l4.3937073 0l-8.787415 -13.684967l-8.787384 13.684967l4.3937073 0l0 76.11032z" fill-rule="evenodd"/><path fill="#000000" fill-opacity="0.0" d="m128.89764 165.97638l175.77951 0l0 40.409454l-175.77951 0z" fill-rule="evenodd"/><path fill="#000000" d="m141.75702 181.1945q0.59375 -0.609375 0.65625 -1.328125l0.796875 0l0 11.484375l-1.53125 0l0 -8.828125l-1.984375 0l0 -0.796875l0.59375 0q0.9375 0 1.46875 -0.53125zm5.640625 8.765625l1.53125 0l0 1.453125l-1.53125 0l0 -1.453125zm17.929688 -4.1875q0 4.984375 -4.65625 7.171875l-1.328125 -1.125q4.390625 -2.0 4.453125 -6.109375l0 -6.640625l1.390625 0q0.671875 0.125 0.140625 0.53125l0 6.171875zm-6.84375 1.453125l-1.53125 0l0 -7.5l1.46875 0q0.65625 0.0625 0.0625 0.53125l0 6.96875zm21.589844 -4.703125q-1.265625 7.234375 -8.3125 10.359375l-1.1875 -1.265625q6.5 -2.65625 7.828125 -9.171875l-5.3125 0q-1.515625 2.53125 -3.1875 4.0625l-1.328125 -0.875q3.453125 -3.109375 4.453125 -7.296875l1.53125 0.53125q0.390625 0.203125 -0.140625 0.390625q-0.265625 0.875 -0.71875 1.734375l4.78125 0l0.59375 -0.328125l1.1875 1.1875q0.46875 0.46875 -0.1875 0.671875zm15.4609375 6.296875l0 1.46875l-13.203125 0l0 -1.46875l5.765625 0l0 -6.5625l-4.640625 0l0 -1.46875l10.75 0l0 1.46875l-4.578125 0l0 6.5625l5.90625 0zm9.972656 -3.25q2.84375 2.1875 5.640625 5.046875l-1.328125 1.140625q-2.796875 -2.9375 -5.375 -4.921875q-2.59375 2.78125 -5.921875 4.984375l-1.25 -1.140625q7.03125 -4.578125 9.03125 -9.15625l-7.25 0.46875l-0.1875 -1.59375l7.703125 -0.34375l0.796875 -0.1875l1.0625 1.0625q0.453125 0.453125 -0.265625 0.59375q-1.265625 2.1875 -2.65625 4.046875zm10.089844 -1.921875q3.25 0.921875 6.578125 2.515625l-0.796875 1.53125q-3.53125 -1.796875 -5.78125 -2.390625l0 6.90625l-1.53125 0l0 -13.28125l1.328125 0q0.796875 0.0625 0.203125 0.53125l0 4.1875zm15.5390625 4.515625q-0.796875 0.46875 -1.65625 0.46875q-1.140625 0 -1.734375 -0.609375q-0.796875 -0.796875 -0.796875 -1.78125q0 -1.0625 0.796875 -1.859375q0.796875 -0.796875 2.0 -0.796875q0.796875 0 1.515625 0.1875l0 -1.453125l-7.296875 0.46875l-0.265625 -1.40625l7.5625 -0.328125l0 -3.125l1.203125 0q0.734375 0.140625 0.125 0.53125l0 2.53125l5.65625 -0.40625l0 1.40625l-5.65625 0.265625l0 2.515625q0.265625 1.203125 0.265625 2.65625q-0.0625 3.390625 -3.78125 5.71875l-1.265625 -0.9375q3.328125 -1.921875 3.328125 -4.046875zm-1.265625 -3.453125q-0.734375 0 -1.1875 0.46875q-0.40625 0.390625 -0.40625 1.0625q0 0.59375 0.328125 0.921875q0.34375 0.328125 1.0625 0.328125q0.734375 0 1.203125 -0.453125q0.390625 -0.40625 0.390625 -1.0q0 -0.59375 -0.390625 -1.0q-0.328125 -0.328125 -1.0 -0.328125zm18.789062 6.578125q1.0625 -0.140625 1.796875 -0.875q0.796875 -0.796875 0.796875 -2.125q0 -1.453125 -0.859375 -2.3125q-0.859375 -0.875 -2.71875 -0.875q-2.203125 0 -3.390625 0.875q-1.125 0.796875 -2.921875 2.84375l-1.125 -0.984375q4.78125 -4.78125 7.234375 -7.96875q-2.1875 0.265625 -4.390625 0.453125l-0.453125 -1.515625q3.25 0 5.765625 -0.34375l0.609375 -0.265625l0.71875 0.734375q0.734375 0.671875 -0.328125 0.859375q-1.984375 2.265625 -3.984375 4.453125q1.390625 -0.328125 2.328125 -0.328125q2.515625 0 3.71875 1.1875q1.1875 1.203125 1.1875 3.0625q0 1.921875 -1.0625 2.984375q-1.59375 1.59375 -4.046875 1.59375q-2.328125 0 -3.390625 -1.0625q-0.859375 -0.859375 -0.859375 -2.0625q0 -0.796875 0.59375 -1.390625q0.671875 -0.65625 1.53125 -0.65625q1.203125 0 2.0 0.796875q0.921875 0.921875 1.25 2.921875zm-1.328125 0.1875q-0.1875 -1.71875 -0.796875 -2.3125q-0.453125 -0.46875 -0.921875 -0.46875q-0.53125 0 -0.796875 0.265625q-0.328125 0.328125 -0.328125 0.734375q0 0.59375 0.53125 1.125q0.65625 0.65625 1.71875 0.65625q0.265625 0 0.59375 0z" fill-rule="nonzero"/><path fill="#000000" fill-opacity="0.0" d="m427.10236 307.34384l196.8819 0l0 40.409454l-196.8819 0z" fill-rule="evenodd"/><path fill="#000000" d="m437.22736 325.2807q0 -2.0625 1.0625 -3.125q0.875 -0.859375 2.0625 -0.859375q1.46875 0 2.328125 0.859375q0.859375 0.859375 0.859375 2.125q0 1.59375 -1.0 2.796875q-0.921875 1.125 -1.921875 2.1875q-0.53125 0.59375 -1.0625 1.1875q-0.46875 0.53125 -0.796875 1.0625l4.984375 0l0 1.265625l-6.78125 0l0 -1.125q0.140625 -0.671875 1.140625 -1.859375q1.65625 -1.796875 2.71875 -2.984375q1.125 -1.203125 1.125 -2.53125q0 -0.796875 -0.53125 -1.328125q-0.390625 -0.390625 -1.0 -0.390625q-0.53125 0 -0.921875 0.390625q-0.734375 0.734375 -0.734375 2.328125l-1.53125 0zm8.375 6.046875l1.53125 0l0 1.453125l-1.53125 0l0 -1.453125zm23.101562 -3.53125l-6.171875 0.671875l1.265625 5.375l-1.46875 0.34375l-1.25 -5.515625l-6.78125 0.796875l-0.203125 -1.40625l6.640625 -0.71875l-0.65625 -3.125l-4.515625 0.53125l-0.265625 -1.390625l4.375 -0.46875l-0.65625 -3.0625l1.390625 -0.265625q0.59375 -0.0625 0.203125 0.46875l0.53125 2.65625l4.84375 -0.65625l0.265625 1.390625l-4.71875 0.59375l0.671875 3.125l6.234375 -0.734375l0.265625 1.390625zm6.8515625 -1.984375l5.4375 -1.328125l0.328125 -0.203125l1.0625 1.0625q0.265625 0.265625 -0.1875 0.40625q-1.203125 1.921875 -2.53125 3.71875l-1.125 -0.734375q1.0625 -1.390625 1.984375 -2.921875l-4.578125 1.125l2.265625 6.71875l-1.328125 0.453125l-2.203125 -6.90625l-3.84375 1.0625l-0.46875 -1.328125l3.859375 -0.859375l-1.0625 -3.1875l1.390625 -0.265625q0.59375 0 0.203125 0.46875l0.796875 2.71875zm19.117188 -0.9375q-0.46875 4.328125 -2.390625 6.25q-1.921875 1.921875 -5.046875 3.0625l-0.859375 -1.265625q3.046875 -1.0 4.78125 -2.734375q1.859375 -1.859375 2.125 -6.296875l1.390625 0.453125q0.59375 0.203125 0 0.53125zm-5.640625 2.390625q-0.796875 -1.78125 -1.59375 -2.984375l1.265625 -0.65625q0.984375 1.25 1.71875 2.984375l-1.390625 0.65625zm-3.390625 1.0q-0.796875 -1.859375 -1.65625 -3.125l1.328125 -0.65625q0.921875 1.265625 1.65625 3.046875l-1.328125 0.734375zm12.359375 3.65625q7.234375 -1.59375 10.890625 -7.5l1.1875 1.1875q-3.390625 5.453125 -10.484375 7.703125q-0.203125 0.796875 -0.671875 0.078125l-0.921875 -1.46875zm-0.46875 -8.03125q1.65625 0.859375 3.390625 2.125l-1.0625 1.390625q-2.0 -1.46875 -3.328125 -2.125l1.0 -1.390625zm1.859375 -3.921875q1.796875 1.0 3.390625 2.125l-0.9375 1.390625q-1.796875 -1.265625 -3.3125 -2.125l0.859375 -1.390625zm24.429688 12.484375l-11.953125 0l0 -1.265625l7.171875 0l0.140625 -4.984375l-5.453125 0l0 -1.25l6.78125 0l-0.140625 6.234375l3.453125 0l0 1.265625zm6.25 -7.171875q0.796875 -0.265625 1.53125 -0.265625q0.859375 0 1.390625 0.53125q0.390625 0.390625 0.46875 1.453125q1.984375 -0.71875 4.515625 -1.515625l0.453125 1.59375q-2.578125 0.390625 -4.84375 1.25l0 2.921875l-1.328125 0l0 -2.390625q-1.984375 0.9375 -2.59375 1.53125q-0.71875 0.734375 -0.71875 1.46875q0 0.390625 0.390625 0.796875q0.46875 0.46875 1.796875 0.46875l5.578125 0l0 1.25l-5.640625 0q-2.125 0 -3.0 -0.859375q-0.65625 -0.671875 -0.65625 -1.65625q0 -1.0625 0.859375 -1.9375q1.328125 -1.328125 3.921875 -2.390625q-0.0625 -0.796875 -0.328125 -1.0625q-0.265625 -0.265625 -1.140625 -0.265625q-1.328125 0 -4.046875 2.390625l-1.125 -1.125q3.125 -1.921875 4.25 -4.25q-1.859375 0.140625 -3.71875 0.265625l-0.265625 -1.328125q2.390625 -0.0625 4.515625 -0.203125q0.328125 -0.796875 0.796875 -2.65625l1.265625 0.34375q0.65625 0.265625 0 0.53125q-0.265625 0.859375 -0.609375 1.71875q2.390625 -0.203125 4.59375 -0.53125l0.1875 1.390625q-2.578125 0.203125 -5.171875 0.40625q-0.671875 1.328125 -1.328125 2.125zm11.886719 -3.921875l-1.328125 0l0 -1.265625l8.5625 0l0 1.265625l-1.984375 0l0 12.890625l-1.328125 0l0 -3.390625q-2.796875 1.0 -4.71875 1.453125q-0.328125 0.46875 -0.40625 0.203125l-0.390625 -1.65625q0.796875 -0.140625 1.59375 -0.265625l0 -9.234375zm5.703125 11.5625q2.0625 -1.40625 3.1875 -2.921875q-1.65625 -2.46875 -2.125 -6.578125l-0.796875 0l0 -1.265625l5.71875 0l0.265625 -0.328125l1.125 1.0625l-0.328125 0.203125q-0.46875 4.046875 -2.125 6.96875q1.0625 1.390625 2.78125 2.453125l-0.796875 1.40625q-1.71875 -1.34375 -2.84375 -2.734375q-1.328125 1.53125 -3.125 3.0l-0.9375 -1.265625zm3.984375 -4.0625q1.0625 -1.59375 1.59375 -5.4375l-3.25 0q0.328125 3.125 1.65625 5.4375zm-8.359375 -7.5l0 2.265625l2.59375 0l0 -2.265625l-2.59375 0zm0 3.328125l0 2.1875l2.59375 0l0 -2.1875l-2.59375 0zm0 3.25l0 2.390625q1.265625 -0.265625 2.59375 -0.734375l0 -1.65625l-2.59375 0zm13.9375 -0.53125q2.53125 -1.65625 4.25 -4.71875l1.0 0.796875q0.265625 0.203125 -0.203125 0.328125q-0.859375 1.40625 -1.25 1.9375l0 8.765625l-1.328125 0l0 -7.375q-0.734375 0.734375 -1.734375 1.53125l-0.734375 -1.265625zm0.40625 -4.65625q2.0625 -1.328125 3.3125 -3.453125l1.0625 0.796875q0.265625 0.265625 -0.1875 0.34375q-1.53125 2.390625 -3.453125 3.578125l-0.734375 -1.265625zm7.03125 7.171875q0.875 0.609375 2.0625 2.125l-1.125 0.9375q-1.0 -1.390625 -2.0 -2.265625l1.0625 -0.796875zm-2.78125 -0.328125l0 -1.265625l6.765625 0l0 -1.125l-6.703125 0l0 -1.265625l10.5 0l0 1.265625l-2.46875 0l0 1.125l2.390625 0l0 1.265625l-2.390625 0l0 3.796875q0 0.984375 -0.921875 0.984375l-1.53125 0l-0.265625 -1.25l1.125 0q0.265625 0 0.265625 -0.28125l0 -3.25l-6.765625 0zm7.640625 -6.765625l-4.78125 0l0 1.1875l4.78125 0l0 -1.1875zm0 -2.125l-4.78125 0l0 1.0625l4.78125 0l0 -1.0625zm1.125 -1.0625l0 5.4375l-7.046875 0l0 -5.4375l7.046875 0z" fill-rule="nonzero"/><path fill="#000000" fill-opacity="0.0" d="m124.414696 388.02756l196.8819 0l0 61.417328l-196.8819 0z" fill-rule="evenodd"/><path fill="#000000" d="m134.5397 405.3707q0 -1.53125 1.0 -2.53125q0.859375 -0.859375 2.125 -0.859375q1.46875 0 2.328125 0.859375q0.796875 0.796875 0.796875 2.125q0 1.328125 -0.671875 2.0q-0.453125 0.453125 -0.984375 0.53125q0.65625 0.1875 1.125 0.65625q0.796875 0.796875 0.796875 2.125q0 1.46875 -0.9375 2.390625q-0.921875 0.9375 -2.578125 0.9375q-1.40625 0 -2.328125 -0.9375q-0.9375 -0.921875 -0.9375 -2.1875l0 -0.53125l1.53125 0l0 0.46875q0 0.859375 0.59375 1.453125q0.46875 0.46875 1.140625 0.46875q0.859375 0 1.390625 -0.53125q0.53125 -0.53125 0.53125 -1.65625q0 -0.9375 -0.53125 -1.46875q-0.53125 -0.53125 -1.203125 -0.53125l-0.53125 0l0 -1.125l0.40625 0q0.59375 0 1.125 -0.53125q0.53125 -0.53125 0.53125 -1.53125q0 -0.859375 -0.53125 -1.390625q-0.390625 -0.40625 -1.0625 -0.40625q-0.59375 0 -1.0625 0.46875q-0.53125 0.53125 -0.59375 1.734375l-1.46875 0zm8.375 6.640625l1.53125 0l0 1.453125l-1.53125 0l0 -1.453125zm23.101562 -3.53125l-6.171875 0.671875l1.265625 5.375l-1.46875 0.34375l-1.25 -5.515625l-6.78125 0.796875l-0.203125 -1.40625l6.640625 -0.71875l-0.65625 -3.125l-4.515625 0.53125l-0.265625 -1.390625l4.375 -0.46875l-0.65625 -3.0625l1.390625 -0.265625q0.59375 -0.0625 0.203125 0.46875l0.53125 2.65625l4.84375 -0.65625l0.265625 1.390625l-4.71875 0.59375l0.671875 3.125l6.234375 -0.734375l0.265625 1.390625zm6.8515625 -1.984375l5.4375 -1.328125l0.328125 -0.203125l1.0625 1.0625q0.265625 0.265625 -0.1875 0.40625q-1.203125 1.921875 -2.53125 3.71875l-1.125 -0.734375q1.0625 -1.390625 1.984375 -2.921875l-4.578125 1.125l2.265625 6.71875l-1.328125 0.453125l-2.203125 -6.90625l-3.84375 1.0625l-0.46875 -1.328125l3.859375 -0.859375l-1.0625 -3.1875l1.390625 -0.265625q0.59375 0 0.203125 0.46875l0.796875 2.71875zm19.117188 -0.9375q-0.46875 4.328125 -2.390625 6.25q-1.921875 1.921875 -5.046875 3.0625l-0.859375 -1.265625q3.046875 -1.0 4.78125 -2.734375q1.859375 -1.859375 2.125 -6.296875l1.390625 0.453125q0.59375 0.203125 0 0.53125zm-5.640625 2.390625q-0.796875 -1.78125 -1.59375 -2.984375l1.265625 -0.65625q0.984375 1.25 1.71875 2.984375l-1.390625 0.65625zm-3.390625 1.0q-0.796875 -1.859375 -1.65625 -3.125l1.328125 -0.65625q0.921875 1.265625 1.65625 3.046875l-1.328125 0.734375zm12.359375 3.65625q7.234375 -1.59375 10.890625 -7.5l1.1875 1.1875q-3.390625 5.453125 -10.484375 7.703125q-0.203125 0.796875 -0.671875 0.078125l-0.921875 -1.46875zm-0.46875 -8.03125q1.65625 0.859375 3.390625 2.125l-1.0625 1.390625q-2.0 -1.46875 -3.328125 -2.125l1.0 -1.390625zm1.859375 -3.921875q1.796875 1.0 3.390625 2.125l-0.9375 1.390625q-1.796875 -1.265625 -3.3125 -2.125l0.859375 -1.390625zm24.429688 12.484375l-11.953125 0l0 -1.265625l7.171875 0l0.140625 -4.984375l-5.453125 0l0 -1.25l6.78125 0l-0.140625 6.234375l3.453125 0l0 1.265625zm13.21875 -10.09375q2.71875 2.78125 3.71875 6.703125l-1.453125 0.59375q-1.203125 -4.3125 -3.453125 -6.4375l1.1875 -0.859375zm-1.984375 5.3125q0 3.84375 -1.140625 4.984375q-0.65625 0.65625 -1.515625 0.65625q-1.265625 0 -2.53125 -1.453125l0.859375 -1.203125q1.0625 1.0625 1.59375 1.0625q0.34375 0 0.609375 -0.265625q0.71875 -0.734375 0.71875 -4.046875q0 -1.859375 -0.390625 -2.265625q-0.203125 -0.1875 -0.796875 -0.1875q-0.59375 0 -1.65625 0.125q-1.40625 4.921875 -3.328125 8.4375l-1.53125 -0.53125q1.9375 -2.984375 3.390625 -7.765625q-1.453125 0.1875 -2.859375 0.328125l-0.125 -1.46875q1.1875 0 3.3125 -0.1875q0.609375 -2.0625 1.0 -4.1875l1.390625 0.46875q0.796875 0.328125 -0.0625 0.59375q-0.390625 1.390625 -0.796875 2.984375q0.796875 -0.125 1.65625 -0.125q0.9375 0 1.40625 0.453125q0.796875 0.796875 0.796875 3.59375zm3.71875 -8.765625q1.1875 0.65625 2.65625 1.859375l-0.796875 0.796875q-1.46875 -1.125 -2.65625 -1.859375l0.796875 -0.796875zm0.453125 4.25q-1.515625 -1.265625 -2.578125 -1.921875l0.796875 -0.796875q1.1875 0.65625 2.65625 1.859375l-0.875 0.859375zm11.5625 3.25l4.578125 0l0 7.640625l-1.53125 0l0 -1.0l-7.359375 0l0 1.140625l-1.53125 0l0 -7.78125l4.515625 0l0 -3.125l-6.640625 0l0 -1.453125l6.640625 0l0 -2.453125l1.265625 0q0.53125 0.0625 0.0625 0.390625l0 2.0625l6.90625 0l0 1.453125l-6.90625 0l0 3.125zm3.046875 1.265625l-7.359375 0l0 4.109375l7.359375 0l0 -4.109375zm12.421875 1.984375q-0.59375 1.53125 -1.265625 2.328125q-0.921875 1.140625 -1.859375 1.140625q-1.65625 0 -2.453125 -1.9375q-0.46875 -1.125 -0.46875 -4.84375q0 -2.65625 0.265625 -5.375l1.40625 0.328125q0.796875 0.203125 0.0625 0.65625q-0.265625 2.46875 -0.265625 4.453125q0 2.71875 0.328125 3.859375q0.328125 1.125 1.0 1.125q0.734375 0 1.265625 -1.0625q0.328125 -0.671875 0.65625 -1.59375l1.328125 0.921875zm3.921875 -7.765625q2.984375 3.125 3.65625 7.578125l-1.796875 0.453125q-0.796875 -4.640625 -3.25 -7.234375l1.390625 -0.796875z" fill-rule="nonzero"/><path fill="#000000" d="m162.69595 430.8738q2.734375 0.609375 5.3125 1.859375l-0.71875 1.46875q-2.46875 -1.53125 -4.59375 -2.0625q0 1.734375 -0.859375 2.59375q-0.796875 0.796875 -2.59375 0.796875q-1.390625 0 -2.25 -0.859375q-0.59375 -0.609375 -0.59375 -1.671875q0 -0.921875 0.65625 -1.59375q0.859375 -0.859375 2.65625 -0.859375q0.53125 0 1.65625 0.0625l0 -2.046875l-5.046875 0.125l0 -1.328125l5.046875 -0.125l0 -2.328125l-6.234375 0.203125l0 -1.328125l6.234375 -0.203125l0 -2.59375l1.203125 0q0.734375 0.140625 0.125 0.53125l0 1.921875l5.453125 -0.1875l0 1.328125l-5.453125 0.1875l0 2.390625l4.328125 -0.125l0 1.328125l-4.328125 0.125l0 2.390625zm-1.390625 1.0q-0.734375 -0.125 -1.453125 -0.125q-1.328125 0 -1.859375 0.53125q-0.34375 0.328125 -0.34375 0.859375q0 0.390625 0.34375 0.734375q0.453125 0.453125 1.453125 0.453125q0.796875 0 1.328125 -0.53125q0.59375 -0.59375 0.53125 -1.921875zm22.515625 1.734375l0 1.453125l-2.921875 0q-2.53125 0 -4.78125 -1.1875l0.59375 -1.203125q1.734375 0.9375 4.1875 0.9375l2.921875 0zm-9.171875 -7.78125q-0.984375 5.921875 -2.453125 9.375l-1.453125 -0.46875q1.78125 -4.1875 2.515625 -8.765625q-1.59375 0.125 -2.859375 0.125l-0.265625 -1.328125q1.859375 0 3.328125 -0.125q0.265625 -2.0625 0.46875 -3.59375l1.328125 0.265625q0.71875 0.203125 0.125 0.53125q-0.203125 0.796875 -0.53125 2.65625q1.53125 -0.1875 2.796875 -0.53125l0.265625 1.328125q-1.734375 0.34375 -3.265625 0.53125zm8.84375 2.265625q-3.859375 0.125 -6.046875 1.0625l-0.40625 -1.328125q2.859375 -1.125 6.1875 -1.125l0.265625 1.390625zm13.671875 -2.125q0.140625 2.515625 0 5.046875q2.0 0.734375 3.859375 2.0625l-0.796875 1.25q-1.40625 -1.0625 -3.0625 -1.859375q0 1.203125 -0.734375 1.9375q-0.796875 0.796875 -2.3125 0.796875q-1.53125 0 -2.328125 -0.796875q-0.671875 -0.671875 -0.671875 -1.734375q0 -0.921875 0.53125 -1.453125q0.796875 -0.796875 2.390625 -0.796875q0.875 0 1.734375 0.1875q0.125 -2.25 0 -4.578125l-4.921875 0.328125l0 -1.390625l4.78125 -0.265625q-0.0625 -1.859375 -0.265625 -3.3125l1.40625 0q0.71875 0.125 0.125 0.53125q0.0625 1.390625 0.140625 2.71875l3.578125 -0.203125l0 1.390625l-3.453125 0.140625zm-10.03125 8.90625q-0.265625 -1.875 -0.265625 -4.328125q0 -5.375 0.796875 -8.625l1.46875 0.265625q0.46875 0.1875 -0.0625 0.453125q-0.734375 2.328125 -0.734375 7.90625q0 2.53125 0.328125 4.0625l-1.53125 0.265625zm8.640625 -2.9375q-1.125 -0.328125 -1.734375 -0.328125q-0.921875 0 -1.328125 0.40625q-0.328125 0.328125 -0.328125 0.65625q0 0.53125 0.265625 0.796875q0.46875 0.46875 1.390625 0.46875q0.9375 0 1.328125 -0.46875q0.46875 -0.53125 0.40625 -1.53125zm9.765625 -2.1875q-1.46875 1.46875 -2.0625 1.796875l-0.734375 -1.390625q1.59375 -1.0 2.796875 -2.59375l0 -1.203125l0.796875 0.203125q0.859375 -1.328125 1.328125 -2.71875l-4.515625 0l0 -1.265625l4.84375 0q0.203125 -0.59375 0.46875 -1.859375l1.453125 0.40625q0.265625 0.265625 -0.203125 0.328125l-0.265625 1.125l8.046875 0l0 1.265625l-8.4375 0q-0.734375 2.25 -2.1875 4.3125l0 7.703125l-1.328125 0l0 -6.109375zm3.640625 -4.3125l6.046875 0l0.203125 -0.203125l1.0625 0.859375q0.390625 0.40625 -0.265625 0.53125l-2.53125 2.0l0 1.0l4.1875 0l0 1.25l-4.1875 0l0 3.796875q0 1.0625 -1.0625 1.0625l-1.328125 0l-0.1875 -1.265625l0.984375 0q0.265625 0 0.265625 -0.265625l0 -3.328125l-4.578125 0l0 -1.25l4.578125 0l0 -1.9375l0.671875 0.078125l1.125 -1.0625l-4.984375 0l0 -1.265625zm13.484375 0.65625l0.859375 0.203125q0.40625 -0.390625 1.265625 -1.984375l-4.3125 0l0 -1.265625l4.84375 0q0.53125 -1.265625 0.796875 -2.390625l1.46875 0.53125q0.265625 0.265625 -0.203125 0.328125q-0.140625 0.59375 -0.59375 1.53125l7.703125 0l0 1.265625l-8.234375 0q-0.796875 1.78125 -2.265625 3.71875l0 7.828125l-1.328125 0l0 -6.578125q-0.859375 0.875 -2.453125 1.796875l-0.671875 -1.53125q1.859375 -0.859375 3.125 -2.25l0 -1.203125zm7.5 -0.859375q0.53125 0.0625 0.078125 0.40625l0 2.578125l3.375 0l0 1.265625l-3.375 0l0 4.390625l4.375 0l0 1.265625l-10.03125 0l0 -1.265625l4.328125 0l0 -4.390625l-3.65625 0l0 -1.265625l3.65625 0l0 -2.984375l1.25 0zm18.140625 6.84375q-2.859375 3.125 -6.1875 3.125q-2.390625 0 -3.515625 -1.140625q-0.859375 -0.859375 -0.859375 -3.3125l0 -8.90625l1.390625 0q0.59375 0.140625 0.140625 0.53125l0 8.375q0 1.65625 0.59375 2.25q0.734375 0.734375 2.1875 0.734375q2.59375 0 5.25 -2.921875l1.0 1.265625zm11.484375 -5.109375q0.734375 0.125 0.125 0.53125l0 3.84375q1.671875 0.53125 3.453125 1.46875l-0.796875 1.25q-1.453125 -0.859375 -2.65625 -1.25q-0.1875 1.390625 -0.859375 2.0625q-0.796875 0.796875 -2.1875 0.796875q-1.859375 0 -2.59375 -0.734375q-0.65625 -0.671875 -0.65625 -1.734375q0 -0.859375 0.65625 -1.53125q0.859375 -0.859375 2.53125 -0.859375q1.125 0 1.78125 0.203125l0 -4.046875l1.203125 0zm-7.109375 -1.59375q-1.0625 0.125 -2.65625 0.125l-0.203125 -1.390625q1.671875 0 3.328125 -0.140625q0.328125 -1.1875 0.796875 -3.1875l1.1875 0.40625q0.671875 0.265625 0 0.53125l-0.59375 2.125q1.125 -0.140625 2.328125 -0.46875l0.328125 1.390625q-1.859375 0.40625 -3.046875 0.46875q-1.0625 3.390625 -3.125 7.375l-1.328125 -0.671875q2.0625 -3.640625 2.984375 -6.5625zm6.375 -2.0q1.859375 0.59375 4.453125 1.59375l-0.59375 1.390625q-2.796875 -1.1875 -4.390625 -1.65625l0.53125 -1.328125zm-0.46875 8.90625q-0.796875 -0.265625 -1.78125 -0.265625q-1.0625 0 -1.46875 0.390625q-0.328125 0.328125 -0.328125 0.796875q0 0.46875 0.265625 0.734375q0.390625 0.390625 1.390625 0.390625q0.9375 0 1.328125 -0.390625q0.59375 -0.59375 0.59375 -1.65625zm13.152344 -1.140625q-0.59375 1.53125 -1.265625 2.328125q-0.921875 1.140625 -1.859375 1.140625q-1.65625 0 -2.453125 -1.9375q-0.46875 -1.125 -0.46875 -4.84375q0 -2.65625 0.265625 -5.375l1.40625 0.328125q0.796875 0.203125 0.0625 0.65625q-0.265625 2.46875 -0.265625 4.453125q0 2.71875 0.328125 3.859375q0.328125 1.125 1.0 1.125q0.734375 0 1.265625 -1.0625q0.328125 -0.671875 0.65625 -1.59375l1.328125 0.921875zm3.921875 -7.765625q2.984375 3.125 3.65625 7.578125l-1.796875 0.453125q-0.796875 -4.640625 -3.25 -7.234375l1.390625 -0.796875z" fill-rule="nonzero"/><path fill="#000000" fill-opacity="0.0" d="m481.60892 172.58792l208.78738 0l0 40.409454l-208.78738 0z" fill-rule="evenodd"/><path fill="#000000" d="m492.26517 186.66542l5.71875 0l0 1.265625l-4.453125 0l0 0.203125q-0.0625 1.265625 -0.203125 2.453125q-0.0625 0.203125 -0.0625 0.40625q0.859375 -0.796875 1.859375 -0.796875q1.328125 0 2.1875 0.859375q0.9375 0.921875 0.9375 2.71875q0 2.265625 -1.203125 3.453125q-0.921875 0.9375 -2.3125 0.9375q-1.328125 0 -2.203125 -0.875q-0.859375 -0.859375 -1.0625 -2.578125l1.53125 0q0.140625 1.25 0.671875 1.78125q0.390625 0.40625 0.984375 0.40625q0.796875 0 1.265625 -0.46875q0.734375 -0.734375 0.734375 -2.453125q0 -1.65625 -0.59375 -2.265625q-0.40625 -0.390625 -0.9375 -0.390625q-0.796875 0 -1.390625 0.59375q-0.40625 0.40625 -0.53125 0.59375l-1.328125 0q0.0625 -0.265625 0.0625 -0.453125l0.328125 -5.125l0 -0.265625zm7.84375 9.90625l1.53125 0l0 1.453125l-1.53125 0l0 -1.453125zm8.6328125 -4.25q0 -2.796875 1.59375 -4.390625q1.390625 -1.390625 3.3906555 -1.390625q1.984375 0 3.375 1.390625q1.59375 1.59375 1.59375 4.390625q0 2.78125 -1.59375 4.375q-1.390625 1.390625 -3.375 1.390625q-2.0000305 0 -3.3906555 -1.390625q-1.59375 -1.59375 -1.59375 -4.375zm4.9844055 -4.515625q-1.265625 0 -2.2656555 0.984375q-1.125 1.140625 -1.125 3.53125q0 2.390625 1.125 3.515625q1.0000305 1.0 2.2656555 1.0q1.25 0 2.25 -1.0q1.125 -1.125 1.125 -3.515625q0 -2.390625 -1.125 -3.53125q-1.0 -0.984375 -2.25 -0.984375zm9.019531 3.71875q1.0625 -1.0625 2.859375 -1.0625l0 1.453125q-0.265625 -0.0625 -0.734375 -0.0625q-0.984375 0 -1.859375 0.859375q-0.71875 0.734375 -0.984375 1.53125l0 3.78125l-1.328125 0l0 -7.4375l1.328125 0l0 1.859375q0.328125 -0.53125 0.71875 -0.921875zm4.0507812 -4.78125l1.328125 0l0 1.71875l-1.328125 0l0 -1.71875zm0 3.84375l1.328125 0l0 7.4375l-1.328125 0l0 -7.4375zm3.5859375 2.453125q0 -1.125 0.734375 -1.859375q0.734375 -0.71875 1.859375 -0.71875q1.0625 0 1.859375 0.65625q0.671875 -0.65625 1.59375 -0.65625l0.59375 0l0 1.25q-0.796875 -0.328125 -1.78125 -0.0625q0.453125 0.59375 0.453125 1.390625q0 1.203125 -0.71875 1.9375q-0.671875 0.65625 -1.9375 0.65625q-0.65625 0 -1.390625 -0.328125q-0.328125 0.265625 -0.328125 0.53125q0 0.203125 0.125 0.328125q0.34375 0.328125 1.53125 0.40625q1.0625 0.0625 2.265625 0.125q0.65625 0.140625 0.984375 0.46875q0.53125 0.53125 0.53125 1.265625q0 0.796875 -0.53125 1.328125q-0.71875 0.734375 -3.1875 0.734375q-2.046875 0 -2.78125 -0.734375q-0.46875 -0.46875 -0.46875 -1.125q0 -0.46875 0.328125 -0.8125q0.265625 -0.265625 0.796875 -0.53125q-0.1875 -0.125 -0.453125 -0.390625q-0.34375 -0.328125 -0.34375 -0.859375q0 -0.671875 1.0 -1.265625q-0.734375 -0.734375 -0.734375 -1.734375zm2.59375 -1.453125q-0.46875 0 -0.796875 0.328125q-0.46875 0.46875 -0.46875 1.125q0 0.671875 0.40625 1.0625q0.390625 0.40625 0.921875 0.40625q0.609375 0 0.9375 -0.328125q0.390625 -0.40625 0.390625 -1.140625q0 -0.65625 -0.453125 -1.125q-0.34375 -0.328125 -0.9375 -0.328125zm1.390625 6.234375q-1.59375 -0.0625 -2.453125 -0.1875q-0.46875 0.125 -0.65625 0.328125q-0.265625 0.265625 -0.265625 0.59375q0 0.34375 0.265625 0.609375q0.390625 0.390625 1.71875 0.390625q1.796875 0 2.265625 -0.46875q0.265625 -0.265625 0.265625 -0.53125q0 -0.265625 -0.203125 -0.46875q-0.265625 -0.265625 -0.9375 -0.265625zm3.8515625 -11.078125l1.328125 0l0 1.71875l-1.328125 0l0 -1.71875zm0 3.84375l1.328125 0l0 7.4375l-1.328125 0l0 -7.4375zm4.7890625 7.4375l-1.328125 0l0 -7.4375l1.328125 0l0 1.328125q1.1875 -1.453125 2.515625 -1.453125q1.328125 0 2.125 0.796875q0.53125 0.53125 0.53125 1.25l0 5.515625l-1.328125 0l0 -5.109375q0 -0.59375 -0.390625 -1.0q-0.40625 -0.390625 -1.125 -0.390625q-0.671875 0 -1.328125 0.65625q-1.0 1.0 -1.0 2.125l0 3.71875zm22.710938 -0.59375q-3.125 0 -5.1875 -2.0l0.875 -1.125q1.78125 1.734375 4.3125 1.65625l3.65625 0l0 1.46875l-3.65625 0zm-9.5 1.265625q-0.203125 -3.453125 -0.203125 -5.921875q0 -2.984375 0.734375 -7.09375l1.328125 0.328125q0.734375 0.125 0.0625 0.59375q-0.65625 3.859375 -0.65625 6.171875q0 2.59375 0.265625 5.78125l-1.53125 0.140625zm12.28125 -9.828125q-2.84375 -0.078125 -7.4375 0.390625l0 -1.390625q4.78125 -0.46875 7.4375 -0.40625l0 1.40625zm12.160156 3.515625q0 4.984375 -4.65625 7.171875l-1.328125 -1.125q4.390625 -2.0 4.453125 -6.109375l0 -6.640625l1.390625 0q0.671875 0.125 0.140625 0.53125l0 6.171875zm-6.84375 1.453125l-1.53125 0l0 -7.5l1.46875 0q0.65625 0.0625 0.0625 0.53125l0 6.96875zm21.589844 -4.703125q-1.265625 7.234375 -8.3125 10.359375l-1.1875 -1.265625q6.5 -2.65625 7.828125 -9.171875l-5.3125 0q-1.515625 2.53125 -3.1875 4.0625l-1.328125 -0.875q3.453125 -3.109375 4.453125 -7.296875l1.53125 0.53125q0.390625 0.203125 -0.140625 0.390625q-0.265625 0.875 -0.71875 1.734375l4.78125 0l0.59375 -0.328125l1.1875 1.1875q0.46875 0.46875 -0.1875 0.671875zm15.4609375 6.296875l0 1.46875l-13.203125 0l0 -1.46875l5.765625 0l0 -6.5625l-4.640625 0l0 -1.46875l10.75 0l0 1.46875l-4.578125 0l0 6.5625l5.90625 0zm9.972656 -3.25q2.84375 2.1875 5.640625 5.046875l-1.328125 1.140625q-2.796875 -2.9375 -5.375 -4.921875q-2.59375 2.78125 -5.921875 4.984375l-1.25 -1.140625q7.03125 -4.578125 9.03125 -9.15625l-7.25 0.46875l-0.1875 -1.59375l7.703125 -0.34375l0.796875 -0.1875l1.0625 1.0625q0.453125 0.453125 -0.265625 0.59375q-1.265625 2.1875 -2.65625 4.046875zm10.089844 -1.921875q3.25 0.921875 6.578125 2.515625l-0.796875 1.53125q-3.53125 -1.796875 -5.78125 -2.390625l0 6.90625l-1.53125 0l0 -13.28125l1.328125 0q0.796875 0.0625 0.203125 0.53125l0 4.1875z" fill-rule="nonzero"/><path fill="#000000" fill-opacity="0.0" d="m481.60892 260.58792l226.36221 0l0 40.409454l-226.36221 0z" fill-rule="evenodd"/><path fill="#000000" d="m491.54642 280.5873q0 -3.65625 1.59375 -5.25q0.796875 -0.796875 1.984375 -0.796875q1.265625 0 2.0625 0.796875q0.859375 0.859375 0.859375 2.1875l-1.53125 0q0 -0.921875 -0.390625 -1.328125q-0.40625 -0.390625 -1.0 -0.390625q-0.59375 0 -1.0 0.390625q-1.0625 1.0625 -1.0625 3.71875q0.265625 -0.46875 0.671875 -0.859375q0.59375 -0.59375 1.453125 -0.59375q1.203125 0 2.0 0.796875q1.0 0.984375 1.0 2.984375q0 2.0625 -1.0625 3.125q-0.796875 0.796875 -2.203125 0.796875q-1.1875 0 -2.1875 -1.0q-1.1875 -1.203125 -1.1875 -4.578125zm3.515625 -0.9375q-0.671875 0 -1.125 0.46875q-0.734375 0.734375 -0.734375 1.984375q0 1.59375 0.796875 2.390625q0.46875 0.46875 1.0 0.46875q0.59375 0 0.984375 -0.390625q0.609375 -0.609375 0.609375 -2.328125q0 -1.53125 -0.609375 -2.125q-0.453125 -0.46875 -0.921875 -0.46875zm5.046875 4.921875l1.53125 0l0 1.453125l-1.53125 0l0 -1.453125zm8.6328125 -4.25q0 -2.796875 1.59375 -4.390625q1.390625 -1.390625 3.3906555 -1.390625q1.984375 0 3.375 1.390625q1.59375 1.59375 1.59375 4.390625q0 2.78125 -1.59375 4.375q-1.390625 1.390625 -3.375 1.390625q-2.0000305 0 -3.3906555 -1.390625q-1.59375 -1.59375 -1.59375 -4.375zm4.9844055 -4.515625q-1.265625 0 -2.2656555 0.984375q-1.125 1.140625 -1.125 3.53125q0 2.390625 1.125 3.515625q1.0000305 1.0 2.2656555 1.0q1.25 0 2.25 -1.0q1.125 -1.125 1.125 -3.515625q0 -2.390625 -1.125 -3.53125q-1.0 -0.984375 -2.25 -0.984375zm9.019531 3.71875q1.0625 -1.0625 2.859375 -1.0625l0 1.453125q-0.265625 -0.0625 -0.734375 -0.0625q-0.984375 0 -1.859375 0.859375q-0.71875 0.734375 -0.984375 1.53125l0 3.78125l-1.328125 0l0 -7.4375l1.328125 0l0 1.859375q0.328125 -0.53125 0.71875 -0.921875zm4.0507812 -4.78125l1.328125 0l0 1.71875l-1.328125 0l0 -1.71875zm0 3.84375l1.328125 0l0 7.4375l-1.328125 0l0 -7.4375zm3.5859375 2.453125q0 -1.125 0.734375 -1.859375q0.734375 -0.71875 1.859375 -0.71875q1.0625 0 1.859375 0.65625q0.671875 -0.65625 1.59375 -0.65625l0.59375 0l0 1.25q-0.796875 -0.328125 -1.78125 -0.0625q0.453125 0.59375 0.453125 1.390625q0 1.203125 -0.71875 1.9375q-0.671875 0.65625 -1.9375 0.65625q-0.65625 0 -1.390625 -0.328125q-0.328125 0.265625 -0.328125 0.53125q0 0.203125 0.125 0.328125q0.34375 0.328125 1.53125 0.40625q1.0625 0.0625 2.265625 0.125q0.65625 0.140625 0.984375 0.46875q0.53125 0.53125 0.53125 1.265625q0 0.796875 -0.53125 1.328125q-0.71875 0.734375 -3.1875 0.734375q-2.046875 0 -2.78125 -0.734375q-0.46875 -0.46875 -0.46875 -1.125q0 -0.46875 0.328125 -0.8125q0.265625 -0.265625 0.796875 -0.53125q-0.1875 -0.125 -0.453125 -0.390625q-0.34375 -0.328125 -0.34375 -0.859375q0 -0.671875 1.0 -1.265625q-0.734375 -0.734375 -0.734375 -1.734375zm2.59375 -1.453125q-0.46875 0 -0.796875 0.328125q-0.46875 0.46875 -0.46875 1.125q0 0.671875 0.40625 1.0625q0.390625 0.40625 0.921875 0.40625q0.609375 0 0.9375 -0.328125q0.390625 -0.40625 0.390625 -1.140625q0 -0.65625 -0.453125 -1.125q-0.34375 -0.328125 -0.9375 -0.328125zm1.390625 6.234375q-1.59375 -0.0625 -2.453125 -0.1875q-0.46875 0.125 -0.65625 0.328125q-0.265625 0.265625 -0.265625 0.59375q0 0.34375 0.265625 0.609375q0.390625 0.390625 1.71875 0.390625q1.796875 0 2.265625 -0.46875q0.265625 -0.265625 0.265625 -0.53125q0 -0.265625 -0.203125 -0.46875q-0.265625 -0.265625 -0.9375 -0.265625zm3.8515625 -11.078125l1.328125 0l0 1.71875l-1.328125 0l0 -1.71875zm0 3.84375l1.328125 0l0 7.4375l-1.328125 0l0 -7.4375zm4.7890625 7.4375l-1.328125 0l0 -7.4375l1.328125 0l0 1.328125q1.1875 -1.453125 2.515625 -1.453125q1.328125 0 2.125 0.796875q0.53125 0.53125 0.53125 1.25l0 5.515625l-1.328125 0l0 -5.109375q0 -0.59375 -0.390625 -1.0q-0.40625 -0.390625 -1.125 -0.390625q-0.671875 0 -1.328125 0.65625q-1.0 1.0 -1.0 2.125l0 3.71875zm12.4765625 0.203125q1.9375 -2.984375 3.390625 -7.765625q-1.453125 0.1875 -2.859375 0.328125l-0.125 -1.46875q1.1875 0 3.3125 -0.1875q0.609375 -2.0625 1.0 -4.1875l1.390625 0.46875q0.796875 0.328125 -0.0625 0.59375q-0.390625 1.390625 -0.796875 2.984375q0.796875 -0.125 1.65625 -0.125q0.9375 0 1.40625 0.453125q0.796875 0.796875 0.796875 3.59375q0 3.84375 -1.140625 4.984375q-0.65625 0.65625 -1.515625 0.65625q-1.265625 0 -2.53125 -1.453125l0.859375 -1.203125q1.0625 1.0625 1.59375 1.0625q0.34375 0 0.609375 -0.265625q0.71875 -0.734375 0.71875 -4.046875q0 -1.859375 -0.390625 -2.265625q-0.203125 -0.1875 -0.796875 -0.1875q-0.59375 0 -1.65625 0.125q-1.40625 4.921875 -3.328125 8.4375l-1.53125 -0.53125zm13.359375 -3.328125q-1.203125 -4.3125 -3.453125 -6.4375l1.1875 -0.859375q2.71875 2.78125 3.71875 6.703125l-1.453125 0.59375zm6.90625 2.734375l1.59375 0q3.3125 0 4.171875 -0.875q0.734375 -0.71875 0.734375 -1.65625q0 -0.796875 -0.65625 -1.453125q-0.609375 -0.609375 -2.0 -0.609375q-2.921875 0 -5.3125 2.859375l-1.328125 -0.125l0.734375 -7.109375l1.390625 0.265625q0.671875 0.265625 0 0.53125l-0.46875 4.3125q2.328125 -1.984375 5.3125 -1.984375q1.796875 0 2.859375 1.0625q0.859375 0.859375 0.859375 2.25q0 1.53125 -1.125 2.65625q-1.328125 1.328125 -5.046875 1.328125l-1.1875 0l-0.53125 -1.453125zm-0.796875 -12.6875q1.859375 0.46875 5.046875 1.59375l-0.671875 1.328125q-2.390625 -1.0 -4.984375 -1.734375l0.609375 -1.1875zm13.6015625 11.75q6.109375 -1.125 8.90625 -6.171875l1.125 1.125q-3.1875 5.578125 -10.625 6.84375l-1.0625 -0.796875l0.140625 -0.40625l0 -11.015625l1.453125 0q0.59375 0.0625 0.0625 0.46875l0 9.953125zm19.867188 -4.515625q2.84375 2.1875 5.640625 5.046875l-1.328125 1.140625q-2.796875 -2.9375 -5.375 -4.921875q-2.59375 2.78125 -5.921875 4.984375l-1.25 -1.140625q7.03125 -4.578125 9.03125 -9.15625l-7.25 0.46875l-0.1875 -1.59375l7.703125 -0.34375l0.796875 -0.1875l1.0625 1.0625q0.453125 0.453125 -0.265625 0.59375q-1.265625 2.1875 -2.65625 4.046875zm20.246094 -5.109375q0.53125 0 0.859375 -0.328125q0.34375 -0.34375 0.34375 -0.875q0 -0.53125 -0.34375 -0.859375q-0.328125 -0.328125 -0.859375 -0.328125q-0.53125 0 -0.859375 0.328125q-0.328125 0.328125 -0.328125 0.859375q0 0.53125 0.328125 0.875q0.328125 0.328125 0.859375 0.328125zm0 0.65625q-0.796875 0 -1.328125 -0.53125q-0.53125 -0.53125 -0.53125 -1.328125q0 -0.796875 0.53125 -1.328125q0.53125 -0.53125 1.328125 -0.53125q0.796875 0 1.328125 0.53125q0.53125 0.53125 0.53125 1.328125q0 0.796875 -0.53125 1.328125q-0.53125 0.53125 -1.328125 0.53125zm-2.25 3.71875q2.390625 2.53125 3.578125 4.65625l-1.453125 1.0q-1.40625 -2.46875 -3.390625 -4.59375l1.265625 -1.0625zm-3.1875 -2.84375l6.109375 0l0 1.453125l-6.109375 0l0 9.234375l-1.53125 0l0 -9.234375l-5.984375 0l0 -1.453125l5.984375 0l0 -3.71875l1.390625 0q0.734375 0.125 0.140625 0.53125l0 3.1875zm-3.53125 3.640625q0.40625 0.34375 -0.265625 0.46875q-0.984375 2.1875 -2.515625 4.578125l-1.46875 -0.796875q1.671875 -2.390625 2.796875 -5.046875l1.453125 0.796875zm25.171875 -1.71875q-3.515625 7.296875 -11.8125 7.703125q-0.34375 0.859375 -0.671875 0.140625l-0.53125 -1.734375q8.640625 -0.203125 11.625 -7.109375l1.390625 1.0zm-9.359375 0q-1.796875 -1.65625 -3.390625 -2.71875l1.125 -1.40625q1.40625 0.875 3.53125 2.859375l-1.265625 1.265625zm19.128906 1.65625q2.84375 2.1875 5.640625 5.046875l-1.328125 1.140625q-2.796875 -2.9375 -5.375 -4.921875q-2.59375 2.78125 -5.921875 4.984375l-1.25 -1.140625q7.03125 -4.578125 9.03125 -9.15625l-7.25 0.46875l-0.1875 -1.59375l7.703125 -0.34375l0.796875 -0.1875l1.0625 1.0625q0.453125 0.453125 -0.265625 0.59375q-1.265625 2.1875 -2.65625 4.046875z" fill-rule="nonzero"/><path fill="#000000" fill-opacity="0.0" d="m427.10236 328.37796l324.7874 0l0 40.409454l-324.7874 0z" fill-rule="evenodd"/><path fill="#000000" d="m437.22736 342.45544l6.3125 0l0 1.46875l-3.1875 9.890625l-1.453125 0l3.1875 -10.09375l-4.859375 0l0 -1.265625zm8.375 9.90625l1.53125 0l0 1.453125l-1.53125 0l0 -1.453125zm8.6328125 -4.25q0 -2.796875 1.59375 -4.390625q1.390625 -1.390625 3.390625 -1.390625q1.984375 0 3.375 1.390625q1.59375 1.59375 1.59375 4.390625q0 2.78125 -1.59375 4.375q-1.390625 1.390625 -3.375 1.390625q-2.0 0 -3.390625 -1.390625q-1.59375 -1.59375 -1.59375 -4.375zm4.984375 -4.515625q-1.265625 0 -2.265625 0.984375q-1.125 1.140625 -1.125 3.53125q0 2.390625 1.125 3.515625q1.0 1.0 2.265625 1.0q1.25 0 2.25 -1.0q1.125 -1.125 1.125 -3.515625q0 -2.390625 -1.125 -3.53125q-1.0 -0.984375 -2.25 -0.984375zm9.019531 3.71875q1.0625 -1.0625 2.859375 -1.0625l0 1.453125q-0.265625 -0.0625 -0.734375 -0.0625q-0.984375 0 -1.859375 0.859375q-0.71875 0.734375 -0.984375 1.53125l0 3.78125l-1.328125 0l0 -7.4375l1.328125 0l0 1.859375q0.328125 -0.53125 0.71875 -0.921875zm4.0507812 -4.78125l1.328125 0l0 1.71875l-1.328125 0l0 -1.71875zm0 3.84375l1.328125 0l0 7.4375l-1.328125 0l0 -7.4375zm3.5859375 2.453125q0 -1.125 0.734375 -1.859375q0.734375 -0.71875 1.859375 -0.71875q1.0625 0 1.859375 0.65625q0.671875 -0.65625 1.59375 -0.65625l0.59375 0l0 1.25q-0.796875 -0.328125 -1.78125 -0.0625q0.453125 0.59375 0.453125 1.390625q0 1.203125 -0.71875 1.9375q-0.671875 0.65625 -1.9375 0.65625q-0.65625 0 -1.390625 -0.328125q-0.328125 0.265625 -0.328125 0.53125q0 0.203125 0.125 0.328125q0.34375 0.328125 1.53125 0.40625q1.0625 0.0625 2.265625 0.125q0.65625 0.140625 0.984375 0.46875q0.53125 0.53125 0.53125 1.265625q0 0.796875 -0.53125 1.328125q-0.71875 0.734375 -3.1875 0.734375q-2.046875 0 -2.78125 -0.734375q-0.46875 -0.46875 -0.46875 -1.125q0 -0.46875 0.328125 -0.8125q0.265625 -0.265625 0.796875 -0.53125q-0.1875 -0.125 -0.453125 -0.390625q-0.34375 -0.328125 -0.34375 -0.859375q0 -0.671875 1.0 -1.265625q-0.734375 -0.734375 -0.734375 -1.734375zm2.59375 -1.453125q-0.46875 0 -0.796875 0.328125q-0.46875 0.46875 -0.46875 1.125q0 0.671875 0.40625 1.0625q0.390625 0.40625 0.921875 0.40625q0.609375 0 0.9375 -0.328125q0.390625 -0.40625 0.390625 -1.140625q0 -0.65625 -0.453125 -1.125q-0.34375 -0.328125 -0.9375 -0.328125zm1.390625 6.234375q-1.59375 -0.0625 -2.453125 -0.1875q-0.46875 0.125 -0.65625 0.328125q-0.265625 0.265625 -0.265625 0.59375q0 0.34375 0.265625 0.609375q0.390625 0.390625 1.71875 0.390625q1.796875 0 2.265625 -0.46875q0.265625 -0.265625 0.265625 -0.53125q0 -0.265625 -0.203125 -0.46875q-0.265625 -0.265625 -0.9375 -0.265625zm3.8515625 -11.078125l1.328125 0l0 1.71875l-1.328125 0l0 -1.71875zm0 3.84375l1.328125 0l0 7.4375l-1.328125 0l0 -7.4375zm4.7890625 7.4375l-1.328125 0l0 -7.4375l1.328125 0l0 1.328125q1.1875 -1.453125 2.515625 -1.453125q1.328125 0 2.125 0.796875q0.53125 0.53125 0.53125 1.25l0 5.515625l-1.328125 0l0 -5.109375q0 -0.59375 -0.390625 -1.0q-0.40625 -0.390625 -1.125 -0.390625q-0.671875 0 -1.328125 0.65625q-1.0 1.0 -1.0 2.125l0 3.71875zm12.4765625 0.203125q1.9375 -2.984375 3.390625 -7.765625q-1.453125 0.1875 -2.859375 0.328125l-0.125 -1.46875q1.1875 0 3.3125 -0.1875q0.609375 -2.0625 1.0 -4.1875l1.390625 0.46875q0.796875 0.328125 -0.0625 0.59375q-0.390625 1.390625 -0.796875 2.984375q0.796875 -0.125 1.65625 -0.125q0.9375 0 1.40625 0.453125q0.796875 0.796875 0.796875 3.59375q0 3.84375 -1.140625 4.984375q-0.65625 0.65625 -1.515625 0.65625q-1.265625 0 -2.53125 -1.453125l0.859375 -1.203125q1.0625 1.0625 1.59375 1.0625q0.34375 0 0.609375 -0.265625q0.71875 -0.734375 0.71875 -4.046875q0 -1.859375 -0.390625 -2.265625q-0.203125 -0.1875 -0.796875 -0.1875q-0.59375 0 -1.65625 0.125q-1.40625 4.921875 -3.328125 8.4375l-1.53125 -0.53125zm13.359375 -3.328125q-1.203125 -4.3125 -3.453125 -6.4375l1.1875 -0.859375q2.71875 2.78125 3.71875 6.703125l-1.453125 0.59375zm6.90625 2.734375l1.59375 0q3.3125 0 4.171875 -0.875q0.734375 -0.71875 0.734375 -1.65625q0 -0.796875 -0.65625 -1.453125q-0.609375 -0.609375 -2.0 -0.609375q-2.921875 0 -5.3125 2.859375l-1.328125 -0.125l0.734375 -7.109375l1.390625 0.265625q0.671875 0.265625 0 0.53125l-0.46875 4.3125q2.328125 -1.984375 5.3125 -1.984375q1.796875 0 2.859375 1.0625q0.859375 0.859375 0.859375 2.25q0 1.53125 -1.125 2.65625q-1.328125 1.328125 -5.046875 1.328125l-1.1875 0l-0.53125 -1.453125zm-0.796875 -12.6875q1.859375 0.46875 5.046875 1.59375l-0.671875 1.328125q-2.390625 -1.0 -4.984375 -1.734375l0.609375 -1.1875zm19.257812 3.921875q-1.140625 6.640625 -2.734375 8.234375q-0.859375 0.859375 -1.78125 0.859375q-1.0625 0 -1.671875 -0.59375q-1.59375 -1.59375 -1.59375 -3.984375q0 -2.921875 2.0625 -4.984375q2.265625 -2.265625 5.515625 -2.265625q2.921875 0 4.578125 1.671875q1.859375 1.859375 1.859375 4.375q0 2.71875 -1.71875 4.453125q-1.140625 1.125 -3.453125 2.1875l-1.40625 -1.390625q2.328125 -0.734375 3.65625 -2.0625q1.265625 -1.265625 1.265625 -3.046875q0 -2.125 -1.390625 -3.53125q-1.40625 -1.390625 -4.390625 -1.25l1.203125 0.59375q0.796875 0.328125 0 0.734375zm-1.53125 -1.265625q-1.734375 0.390625 -2.984375 1.65625q-1.734375 1.734375 -1.734375 4.25q0 1.53125 1.0 2.53125q0.203125 0.1875 0.59375 0.1875q0.40625 0 0.859375 -0.453125q1.53125 -1.53125 2.265625 -8.171875zm12.875 9.09375q6.109375 -1.125 8.90625 -6.171875l1.125 1.125q-3.1875 5.578125 -10.625 6.84375l-1.0625 -0.796875l0.140625 -0.40625l0 -11.015625l1.453125 0q0.59375 0.0625 0.0625 0.46875l0 9.953125zm19.867188 -4.515625q2.84375 2.1875 5.640625 5.046875l-1.328125 1.140625q-2.796875 -2.9375 -5.375 -4.921875q-2.59375 2.78125 -5.921875 4.984375l-1.25 -1.140625q7.03125 -4.578125 9.03125 -9.15625l-7.25 0.46875l-0.1875 -1.59375l7.703125 -0.34375l0.796875 -0.1875l1.0625 1.0625q0.453125 0.453125 -0.265625 0.59375q-1.265625 2.1875 -2.65625 4.046875zm20.246094 -5.109375q0.53125 0 0.859375 -0.328125q0.34375 -0.34375 0.34375 -0.875q0 -0.53125 -0.34375 -0.859375q-0.328125 -0.328125 -0.859375 -0.328125q-0.53125 0 -0.859375 0.328125q-0.328125 0.328125 -0.328125 0.859375q0 0.53125 0.328125 0.875q0.328125 0.328125 0.859375 0.328125zm0 0.65625q-0.796875 0 -1.328125 -0.53125q-0.53125 -0.53125 -0.53125 -1.328125q0 -0.796875 0.53125 -1.328125q0.53125 -0.53125 1.328125 -0.53125q0.796875 0 1.328125 0.53125q0.53125 0.53125 0.53125 1.328125q0 0.796875 -0.53125 1.328125q-0.53125 0.53125 -1.328125 0.53125zm-2.25 3.71875q2.390625 2.53125 3.578125 4.65625l-1.453125 1.0q-1.40625 -2.46875 -3.390625 -4.59375l1.265625 -1.0625zm-3.1875 -2.84375l6.109375 0l0 1.453125l-6.109375 0l0 9.234375l-1.53125 0l0 -9.234375l-5.984375 0l0 -1.453125l5.984375 0l0 -3.71875l1.390625 0q0.734375 0.125 0.140625 0.53125l0 3.1875zm-3.53125 3.640625q0.40625 0.34375 -0.265625 0.46875q-0.984375 2.1875 -2.515625 4.578125l-1.46875 -0.796875q1.671875 -2.390625 2.796875 -5.046875l1.453125 0.796875zm25.171875 -1.71875q-3.515625 7.296875 -11.8125 7.703125q-0.34375 0.859375 -0.671875 0.140625l-0.53125 -1.734375q8.640625 -0.203125 11.625 -7.109375l1.390625 1.0zm-9.359375 0q-1.796875 -1.65625 -3.390625 -2.71875l1.125 -1.40625q1.40625 0.875 3.53125 2.859375l-1.265625 1.265625zm19.128906 1.65625q2.84375 2.1875 5.640625 5.046875l-1.328125 1.140625q-2.796875 -2.9375 -5.375 -4.921875q-2.59375 2.78125 -5.921875 4.984375l-1.25 -1.140625q7.03125 -4.578125 9.03125 -9.15625l-7.25 0.46875l-0.1875 -1.59375l7.703125 -0.34375l0.796875 -0.1875l1.0625 1.0625q0.453125 0.453125 -0.265625 0.59375q-1.265625 2.1875 -2.65625 4.046875zm11.683594 -1.65625q0.796875 -0.265625 1.53125 -0.265625q0.859375 0 1.390625 0.53125q0.390625 0.390625 0.46875 1.453125q1.984375 -0.71875 4.515625 -1.515625l0.453125 1.59375q-2.578125 0.390625 -4.84375 1.25l0 2.921875l-1.328125 0l0 -2.390625q-1.984375 0.9375 -2.59375 1.53125q-0.71875 0.734375 -0.71875 1.46875q0 0.390625 0.390625 0.796875q0.46875 0.46875 1.796875 0.46875l5.578125 0l0 1.25l-5.640625 0q-2.125 0 -3.0 -0.859375q-0.65625 -0.671875 -0.65625 -1.65625q0 -1.0625 0.859375 -1.9375q1.328125 -1.328125 3.921875 -2.390625q-0.0625 -0.796875 -0.328125 -1.0625q-0.265625 -0.265625 -1.140625 -0.265625q-1.328125 0 -4.046875 2.390625l-1.125 -1.125q3.125 -1.921875 4.25 -4.25q-1.859375 0.140625 -3.71875 0.265625l-0.265625 -1.328125q2.390625 -0.0625 4.515625 -0.203125q0.328125 -0.796875 0.796875 -2.65625l1.265625 0.34375q0.65625 0.265625 0 0.53125q-0.265625 0.859375 -0.609375 1.71875q2.390625 -0.203125 4.59375 -0.53125l0.1875 1.390625q-2.578125 0.203125 -5.171875 0.40625q-0.671875 1.328125 -1.328125 2.125zm25.371094 5.046875l-0.265625 1.390625q-0.34375 1.796875 -1.859375 1.796875l-3.125 0q-1.265625 0 -1.265625 -1.53125l0 -5.96875l-2.25 0l0 1.515625q0 5.1875 -5.453125 6.578125l-0.65625 -1.59375q4.578125 -1.125 4.578125 -4.90625l0 -1.59375l-4.390625 0l0 -1.265625l14.28125 0l0 1.265625l-4.578125 0l0 5.5q0 0.53125 0.46875 0.53125l1.78125 0q0.796875 0 0.9375 -0.65625l0.265625 -1.53125l1.53125 0.46875zm-2.0625 -8.5625l-10.890625 0l0 -1.265625l10.890625 0l0 1.265625zm14.34375 10.421875q-3.125 0 -5.1875 -2.0l0.875 -1.125q1.78125 1.734375 4.3125 1.65625l3.65625 0l0 1.46875l-3.65625 0zm-9.5 1.265625q-0.203125 -3.453125 -0.203125 -5.921875q0 -2.984375 0.734375 -7.09375l1.328125 0.328125q0.734375 0.125 0.0625 0.59375q-0.65625 3.859375 -0.65625 6.171875q0 2.59375 0.265625 5.78125l-1.53125 0.140625zm12.28125 -9.828125q-2.84375 -0.078125 -7.4375 0.390625l0 -1.390625q4.78125 -0.46875 7.4375 -0.40625l0 1.40625zm11.566406 6.234375q-1.40625 1.921875 -4.1875 3.71875l-0.734375 -1.59375q2.859375 -1.265625 4.84375 -3.984375l-4.78125 0l0 -1.265625l4.859375 0l0 -1.984375l-2.0 0l0 0.59375l-1.328125 0l0 -5.515625l7.84375 0l0 5.453125l-1.328125 0l0 -0.53125l-1.859375 0l0 1.984375l4.84375 0l0 1.265625l-4.71875 0q1.859375 2.59375 5.109375 3.921875l-0.453125 1.53125q-2.796875 -1.0625 -4.78125 -3.65625l0 4.65625l-1.328125 0l0 -4.59375zm-4.328125 -9.890625q-0.1875 1.453125 -1.0625 3.453125l0.203125 0.125q0.265625 0.265625 -0.203125 0.34375l0 10.5625l-1.328125 0l0 -8.4375q-0.53125 0.859375 -1.25 1.59375l-0.875 -1.328125q2.390625 -2.328125 3.265625 -7.171875l1.453125 0.53125q0.265625 0.265625 -0.203125 0.328125zm2.328125 1.125l0 2.390625l5.1875 0l0 -2.390625l-5.1875 0zm12.890625 7.171875q-1.46875 1.46875 -2.0625 1.796875l-0.734375 -1.390625q1.59375 -1.0 2.796875 -2.59375l0 -1.203125l0.796875 0.203125q0.859375 -1.328125 1.328125 -2.71875l-4.515625 0l0 -1.265625l4.84375 0q0.203125 -0.59375 0.46875 -1.859375l1.453125 0.40625q0.265625 0.265625 -0.203125 0.328125l-0.265625 1.125l8.046875 0l0 1.265625l-8.4375 0q-0.734375 2.25 -2.1875 4.3125l0 7.703125l-1.328125 0l0 -6.109375zm3.640625 -4.3125l6.046875 0l0.203125 -0.203125l1.0625 0.859375q0.390625 0.40625 -0.265625 0.53125l-2.53125 2.0l0 1.0l4.1875 0l0 1.25l-4.1875 0l0 3.796875q0 1.0625 -1.0625 1.0625l-1.328125 0l-0.1875 -1.265625l0.984375 0q0.265625 0 0.265625 -0.265625l0 -3.328125l-4.578125 0l0 -1.25l4.578125 0l0 -1.9375l0.671875 0.078125l1.125 -1.0625l-4.984375 0l0 -1.265625z" fill-rule="nonzero"/><path fill="#000000" fill-opacity="0.0" d="m128.29134 268.22308l214.26772 0l0 61.417328l-214.26772 0z" fill-rule="evenodd"/><path fill="#000000" d="m142.49446 281.4881l2.0625 0l0 7.296875l1.390625 0l0 1.953125l-1.390625 0l0 2.921875l-2.21875 0l0 -2.921875l-4.453125 0l0 -1.765625l4.609375 -7.484375zm-0.15625 4.015625l-2.03125 3.28125l2.03125 0l0 -3.28125zm4.453125 6.015625l2.21875 0l0 2.140625l-2.21875 0l0 -2.140625zm17.289062 -4.921875l4.578125 0l0 8.328125l-2.21875 0l0 -1.0l-6.671875 0l0 1.140625l-2.21875 0l0 -8.46875l4.515625 0l0 -2.4375l-6.640625 0l0 -2.140625l6.640625 0l0 -2.453125l1.625 0q1.453125 0.171875 0.390625 0.90625l0 1.546875l6.90625 0l0 2.140625l-6.90625 0l0 2.4375zm2.359375 1.953125l-6.671875 0l0 3.421875l6.671875 0l0 -3.421875zm13.1875 1.515625q-0.71875 1.828125 -1.421875 2.671875q-1.015625 1.265625 -2.125 1.265625q-1.890625 0 -2.765625 -2.15625q-0.5 -1.1875 -0.5 -4.96875q0 -2.671875 0.3125 -5.796875l1.78125 0.421875q1.59375 0.390625 0.3125 1.1875q-0.25 2.28125 -0.25 4.25q0 2.671875 0.3125 3.765625q0.25 0.875 0.671875 0.875q0.515625 0 0.953125 -0.875q0.328125 -0.65625 0.796875 -1.96875l1.921875 1.328125zm3.5625 -8.078125q3.25 3.40625 3.984375 8.265625l-2.46875 0.625q-0.84375 -4.90625 -3.515625 -7.734375l2.0 -1.15625zm20.523438 6.640625l-6.15625 0.671875l1.25 5.328125l-2.140625 0.5l-1.25 -5.546875l-6.8125 0.796875l-0.296875 -2.078125l6.609375 -0.71875l-0.5 -2.453125l-4.53125 0.53125l-0.390625 -2.0625l4.359375 -0.46875l-0.640625 -3.03125l1.75 -0.34375q1.375 -0.140625 0.609375 0.890625l0.453125 2.1875l4.84375 -0.65625l0.390625 2.078125l-4.703125 0.59375l0.515625 2.453125l6.25 -0.734375l0.390625 2.0625zm6.6796875 -2.6875l5.0625 -1.25l0.515625 -0.3125l1.265625 1.25q0.65625 0.671875 -0.21875 0.953125q-1.140625 1.8125 -2.671875 3.890625l-1.703125 -1.125q1.28125 -1.65625 1.765625 -2.46875l-3.421875 0.84375l2.265625 6.6875l-1.984375 0.671875l-2.21875 -6.921875l-3.828125 1.0625l-0.703125 -2.0l3.859375 -0.859375l-1.0625 -3.203125l1.8125 -0.34375q1.359375 0 0.609375 0.890625l0.65625 2.234375zm19.210938 -0.3125q-0.46875 4.265625 -2.46875 6.28125q-1.984375 1.96875 -5.4375 3.234375l-1.265625 -1.875q3.40625 -1.109375 5.078125 -2.796875q1.78125 -1.765625 2.0625 -6.515625l1.8125 0.59375q1.328125 0.453125 0.21875 1.078125zm-6.140625 2.625q-0.921875 -2.0625 -1.921875 -3.5625l1.859375 -0.96875q1.1875 1.515625 2.0625 3.59375l-2.0 0.9375zm-3.390625 1.03125q-0.921875 -2.171875 -1.984375 -3.75l1.9375 -0.953125q1.109375 1.53125 1.984375 3.640625l-1.9375 1.0625zm11.984375 2.9375q7.5625 -1.65625 11.375 -7.8125l1.6875 1.6875q-3.609375 5.796875 -10.640625 8.015625q-0.34375 1.375 -1.25 0l-1.171875 -1.890625zm-0.03125 -8.234375q1.953125 1.0 3.984375 2.484375l-1.484375 1.953125q-2.234375 -1.65625 -3.90625 -2.484375l1.40625 -1.953125zm1.84375 -3.9375q2.109375 1.15625 3.984375 2.484375l-1.3125 1.96875q-2.078125 -1.453125 -3.890625 -2.484375l1.21875 -1.96875zm24.898453 13.28125l-12.64064 0l0 -1.953125l7.1875 0l0.109375 -4.296875l-5.4375 0l0 -1.9375l7.484375 0l-0.140625 6.234375l3.4375153 0l0 1.953125zm1.25 0.375q2.15625 -3.3125 3.4375 -7.546875q-0.921875 0.125 -2.6875 0.296875l-0.1875 -2.1875q1.546875 0 3.421875 -0.171875q0.546875 -1.8125 1.0 -4.3125l1.78125 0.59375q1.6875 0.703125 0.09375 1.1875q-0.34375 1.21875 -0.609375 2.296875q0.296875 -0.046875 1.1875 -0.046875q1.078125 0 1.640625 0.546875q0.90625 0.90625 0.90625 3.84375q0 3.984375 -1.234375 5.234375q-0.765625 0.75 -1.765625 0.75q-1.421875 0 -2.96875 -1.78125l1.25 -1.75q1.25 1.25 1.640625 1.25q0.203125 0 0.359375 -0.15625q0.625 -0.640625 0.625 -3.8125q0 -1.71875 -0.28125 -2.015625q-0.109375 -0.09375 -0.5625 -0.09375q-0.578125 0 -1.390625 0.09375q-1.359375 4.734375 -3.4375 8.546875l-2.21875 -0.765625zm13.65625 -3.046875q-1.28125 -4.59375 -3.75 -6.9375l1.75 -1.28125q3.0 3.0625 4.09375 7.359375l-2.09375 0.859375z" fill-rule="nonzero"/><path fill="#000000" d="m165.65071 308.02246l-6.640625 0l0 -2.15625l14.296875 0l0 2.15625l-5.4375 0l0 0.515625q0 4.34375 -3.328125 7.34375l-1.90625 -1.40625q3.015625 -2.390625 3.015625 -5.9375l0 -0.515625zm-4.25 -4.046875l0 -2.15625l8.859375 0l0 2.15625l-8.859375 0zm9.421875 -3.515625q1.078125 1.09375 2.28125 2.84375l-1.484375 1.078125q-1.109375 -1.59375 -2.296875 -2.953125l1.5 -0.96875zm1.59375 -0.875q1.078125 1.171875 2.296875 2.796875l-1.5 1.046875q-1.25 -1.703125 -2.3125 -2.765625l1.515625 -1.078125zm3.7890625 13.46875q8.578125 -2.0 8.953125 -8.28125l-9.953125 0l0 -2.15625l10.40625 0l1.0625 -0.234375l0.984375 0.90625q-0.265625 9.234375 -9.765625 11.828125l-1.6875 -2.0625zm18.664062 -2.59375q-1.203125 1.78125 -4.59375 4.234375l-1.6875 -1.484375q3.53125 -2.203125 5.421875 -4.859375l-4.78125 0l0 -1.953125l5.640625 0l0 -3.046875l1.546875 0q1.421875 0.140625 0.46875 0.96875l0 2.078125l4.640625 0l0 1.953125l-4.640625 0l0 6.03125q0 1.546875 -1.46875 1.546875l-1.96875 0l-0.28125 -1.953125l1.3125 0q0.390625 0 0.390625 -0.25l0 -3.265625zm17.558594 1.4375q2.359375 -0.921875 5.03125 -4.59375l1.34375 1.828125q-2.71875 3.734375 -6.65625 5.296875l-0.703125 0.359375l-1.453125 -1.09375l0.21875 -0.515625l0 -10.953125l1.765625 0q1.296875 0.265625 0.453125 1.03125l0 8.640625zm-9.796875 2.328125q3.53125 -3.375 3.53125 -7.9375l0 -3.34375l1.78125 0q1.296875 0.3125 0.421875 1.03125l0 2.234375q0 5.734375 -3.828125 9.28125l-1.90625 -1.265625zm20.484375 -8.140625q3.03125 0.859375 6.703125 2.625l-1.125 2.140625q-3.796875 -1.921875 -5.578125 -2.390625l0 6.796875l-2.21875 0l0 -13.96875l1.6875 0q1.6875 0.125 0.53125 1.046875l0 3.75zm12.0390625 -4.609375q-0.234375 1.5 -0.78125 3.1875q0.921875 0.09375 0.09375 0.890625l0 10.5l-2.015625 0l0.09375 -7.703125q0.0625 0.0625 -0.546875 0.796875l-1.625 -1.203125q2.421875 -2.9375 2.84375 -7.859375l2.015625 0.4375q0.828125 0.828125 -0.078125 0.953125zm6.546875 2.5l0 0.5625l3.265625 0l0 8.53125l-6.875 0l0 -8.53125l1.59375 0l0 -0.5625l-4.78125 0l0 -1.953125l4.78125 0l0 -1.859375l1.625 0q1.453125 0.171875 0.390625 0.90625l0 0.953125l4.328125 0l0 1.953125l-4.328125 0zm-1.78125 2.3125l0 0.515625l3.21875 0l0 -0.515625l-3.21875 0zm0 2.265625l0 0.4375l3.21875 0l0 -0.4375l-3.21875 0zm0 2.1875l0 0.578125l3.21875 0l0 -0.578125l-3.21875 0zm-4.546875 5.3125l0 -11.3125l1.625 0q1.421875 0.171875 0.390625 0.921875l0 7.84375l9.171875 0l0 1.953125l-9.171875 0l0 0.59375l-2.015625 0zm17.734375 -9.9375q0.015625 -0.109375 0.8125 -0.109375q1.0 0 1.640625 0.625q0.46876526 0.484375 0.53126526 1.21875q1.5625 -0.5625 4.4375 -1.46875l0.65625 2.3125q-2.921875 0.4375 -4.9375 1.203125l0 3.03125l-2.0156403 0l0 -2.1875q-1.4375 0.671875 -2.0 1.234375q-0.625 0.625 -0.625 1.21875q0 0.25 0.296875 0.5625q0.359375 0.359375 1.546875 0.359375l5.9218903 0l0 1.9375l-5.9843903 0q-2.265625 0 -3.25 -0.953125q-0.75 -0.78125 -0.75 -1.90625q0 -1.203125 0.953125 -2.171875q1.390625 -1.390625 3.8125 -2.375q-0.03125 -0.421875 -0.21875 -0.59375q-0.15625 -0.171875 -0.890625 -0.171875q-1.203125 0 -4.0625 2.515625l-1.65625 -1.65625q3.40625 -2.09375 4.234375 -3.796875q-1.265625 0.09375 -3.4375 0.234375l-0.40625 -2.015625q2.796875 -0.078125 4.703125 -0.203125q0.234375 -0.578125 0.78125 -2.75l1.625 0.4375q1.4687653 0.59375 0.171875 1.109375q-0.21875 0.71875 -0.359375 1.078125q1.8125153 -0.15625 4.3593903 -0.53125l0.28125 2.09375q-2.9375 0.234375 -5.3437653 0.421875q-0.59375 1.1875 -0.828125 1.296875zm21.683609 -1.578125l0.234375 -0.53125l1.546875 1.21875q0.984375 0.796875 -0.21875 1.015625q-0.671875 2.1875 -1.71875 3.5625q1.171875 0.953125 3.25 1.65625l-0.9375 2.09375q-2.15625 -0.796875 -3.703125 -2.15625q-1.46875 1.34375 -3.515625 2.375l-1.171875 -1.859375q1.703125 -0.8125 3.21875 -1.984375q-1.234375 -1.78125 -1.65625 -3.4375l-0.390625 0l0 1.578125q0 3.328125 -2.0 5.328125l-1.25 -1.953125q1.234375 -1.0 1.234375 -3.5l0 -6.984375l9.515625 0l0 2.140625l-7.5 0l0 1.4375l5.0625 0zm3.453125 9.109375l-0.40625 1.953125l-8.390625 0q-2.5625 0 -3.734375 -1.46875q-0.390625 0.640625 -2.296875 1.78125l-1.234375 -2.09375q1.765625 -0.734375 2.40625 -1.3125l0 -3.5625l-2.1875 0l0 -2.140625l4.203125 0l0 5.671875q0.890625 1.171875 2.78125 1.171875l8.859375 0zm-13.8125 -13.125q1.890625 1.265625 2.9375 2.953125l-1.546875 1.546875q-1.203125 -1.6875 -2.859375 -2.9375l1.46875 -1.5625zm7.6875 5.96875q0.421875 1.28125 1.015625 1.90625q0.71875 -1.015625 0.984375 -1.90625l-2.0 0zm14.390625 4.96875q-0.359375 0.21875 -1.3125 0.21875q-1.28125 0 -1.984375 -0.71875q-0.890625 -0.890625 -0.890625 -2.015625q0 -1.203125 0.890625 -2.109375q0.90625 -0.890625 2.25 -0.890625q0.84375 0 1.171875 0.09375l0 -0.65625l-7.234375 0.46875l-0.390625 -2.09375l7.625 -0.328125l0 -3.140625l1.578125 0q1.609375 0.3125 0.4375 1.0625l0 1.96875l5.65625 -0.40625l0 2.109375l-5.65625 0.265625l0 2.15625q0.265625 1.203125 0.265625 2.6875q-0.0625 3.578125 -4.140625 6.140625l-1.875 -1.390625q3.609375 -2.09375 3.609375 -3.421875zm-0.921875 -3.703125q-0.59375 0 -0.9375 0.375q-0.3125 0.28125 -0.3125 0.8125q0 0.453125 0.21875 0.671875q0.25 0.234375 0.828125 0.234375q0.59375 0 0.953125 -0.359375q0.296875 -0.296875 0.296875 -0.75q0 -0.453125 -0.296875 -0.765625q-0.21875 -0.21875 -0.75 -0.21875z" fill-rule="nonzero"/><path fill="#000000" fill-opacity="0.0" d="m45.406826 270.99213l69.32283 0l0 40.409454l-69.32283 0z" fill-rule="evenodd"/><path fill="#000000" d="m55.344326 290.78836q0 -2.921875 1.65625 -4.578125q1.265625 -1.265625 3.25 -1.265625q2.0 0 3.125 1.125q1.1874962 1.203125 1.2656212 3.0625l-1.5937462 0q-0.140625 -1.40625 -0.875 -2.125q-0.796875 -0.796875 -1.921875 -0.796875q-1.1875 0 -2.125 0.921875q-1.1875 1.203125 -1.1875 3.65625q0 2.453125 1.1875 3.65625q0.859375 0.859375 2.125 0.859375q1.328125 0 2.0625 -0.734375q0.921875 -0.921875 0.921875 -2.65625l1.5937462 0q-0.0625 2.265625 -1.3281212 3.515625q-1.125 1.140625 -3.25 1.140625q-1.984375 0 -3.25 -1.265625q-1.65625 -1.65625 -1.65625 -4.515625zm11.476559 -5.71875l1.328125 0l0 11.359375l-1.328125 0l0 -11.359375zm3.5859375 0.078125l1.328125 0l0 1.71875l-1.328125 0l0 -1.71875zm0 3.84375l1.328125 0l0 7.4375l-1.328125 0l0 -7.4375zm3.2578125 3.71875q0 -1.796875 1.125 -2.921875q0.9375 -0.921875 2.390625 -0.921875q1.40625 0 2.390625 0.984375q0.9375 0.9375 0.9375 2.859375l-5.375 0q0 1.390625 0.65625 2.0625q0.59375 0.59375 1.53125 0.59375q0.921875 0 1.328125 -0.390625q0.46875 -0.46875 0.46875 -1.0625l1.453125 0q-0.265625 1.1875 -0.859375 1.78125q-0.859375 0.875 -2.390625 0.875q-1.59375 0 -2.59375 -1.0q-1.0625 -1.0625 -1.0625 -2.859375zm3.453125 -2.71875q-0.796875 0 -1.328125 0.53125q-0.46875 0.46875 -0.59375 1.125l3.78125 0q0 -0.65625 -0.53125 -1.1875q-0.46875 -0.46875 -1.328125 -0.46875zm6.578125 6.4375l-1.328125 0l0 -7.4375l1.328125 0l0 1.328125q1.1875 -1.453125 2.515625 -1.453125q1.328125 0 2.125 0.796875q0.53125 0.53125 0.53125 1.25l0 5.515625l-1.328125 0l0 -5.109375q0 -0.59375 -0.390625 -1.0q-0.40625 -0.390625 -1.125 -0.390625q-0.671875 0 -1.328125 0.65625q-1.0 1.0 -1.0 2.125l0 3.71875zm7.765625 -10.03125l1.328125 0l0 2.59375l2.265625 0l0 1.0625l-2.265625 0l0 4.3125q0 0.40625 0.328125 0.734375q0.265625 0.265625 0.875 0.265625q0.921875 0 1.65625 -0.46875l0 1.265625q-0.734375 0.40625 -1.59375 0.40625q-1.328125 0 -1.921875 -0.609375q-0.671875 -0.65625 -0.671875 -1.453125l0 -4.453125l-1.59375 0l0 -1.0625l1.59375 0l0 -2.59375z" fill-rule="nonzero"/><path fill="#eeeeee" d="m35.217846 232.46457l0 0c0 -24.770187 20.080208 -44.850403 44.8504 -44.850403c24.770187 0 44.850388 20.080215 44.850388 44.850403c0 24.770172 -20.0802 44.850403 -44.850388 44.850403c-24.770191 0 -44.8504 -20.08023 -44.8504 -44.850403z" fill-rule="evenodd"/><path fill="#bebebe" d="m61.027588 219.05098c0 -2.5802307 2.09169 -4.671921 4.671913 -4.671921c2.5802307 0 4.671921 2.09169 4.671921 4.671921c0 2.5802307 -2.09169 4.671921 -4.671921 4.671921c-2.580223 0 -4.671913 -2.09169 -4.671913 -4.671921m28.737473 0c0 -2.5802307 2.09169 -4.671921 4.671921 -4.671921c2.580223 0 4.671913 2.09169 4.671913 4.671921c0 2.5802307 -2.09169 4.671921 -4.671913 4.671921c-2.5802307 0 -4.671921 -2.09169 -4.671921 -4.671921" fill-rule="evenodd"/><path fill="#000000" fill-opacity="0.0" d="m55.759033 252.02412q24.309212 16.695114 48.561646 0" fill-rule="evenodd"/><path fill="#000000" fill-opacity="0.0" d="m35.217846 232.46457l0 0c0 -24.770187 20.080208 -44.850403 44.8504 -44.850403c24.770187 0 44.850388 20.080215 44.850388 44.850403c0 24.770172 -20.0802 44.850403 -44.850388 44.850403c-24.770191 0 -44.8504 -20.08023 -44.8504 -44.850403z" fill-rule="evenodd"/><path stroke="#595959" stroke-width="1.0" stroke-linejoin="round" stroke-linecap="butt" d="m61.027588 219.05098c0 -2.5802307 2.09169 -4.671921 4.671913 -4.671921c2.5802307 0 4.671921 2.09169 4.671921 4.671921c0 2.5802307 -2.09169 4.671921 -4.671921 4.671921c-2.580223 0 -4.671913 -2.09169 -4.671913 -4.671921m28.737473 0c0 -2.5802307 2.09169 -4.671921 4.671921 -4.671921c2.580223 0 4.671913 2.09169 4.671913 4.671921c0 2.5802307 -2.09169 4.671921 -4.671913 4.671921c-2.5802307 0 -4.671921 -2.09169 -4.671921 -4.671921" fill-rule="evenodd"/><path stroke="#595959" stroke-width="1.0" stroke-linejoin="round" stroke-linecap="butt" d="m55.759033 252.02412q24.309212 16.695114 48.561646 0" fill-rule="evenodd"/><path stroke="#595959" stroke-width="1.0" stroke-linejoin="round" stroke-linecap="butt" d="m35.217846 232.46457l0 0c0 -24.770187 20.080208 -44.850403 44.8504 -44.850403c24.770187 0 44.850388 20.080215 44.850388 44.850403c0 24.770172 -20.0802 44.850403 -44.850388 44.850403c-24.770191 0 -44.8504 -20.08023 -44.8504 -44.850403z" fill-rule="evenodd"/></g></svg>